# MagicaVoxel @ Ephtracy

# group
o 

# material
mtllib Human（地下）.mtl
usemtl palette

# normals
vn -1 0 0
vn 1 0 0
vn 0 0 1
vn 0 0 -1
vn 0 -1 0
vn 0 1 0

# texcoords
vt 0.0175781 0.5
vt 0.0214844 0.5
vt 0.197266 0.5
vt 0.533203 0.5
vt 0.537109 0.5
vt 0.841797 0.5
vt 0.853516 0.5
vt 0.935547 0.5
vt 0.962891 0.5
vt 0.966797 0.5
vt 0.970703 0.5
vt 0.974609 0.5
vt 0.982422 0.5
vt 0.994141 0.5

# verts
v -3.1 3.9 1.9
v -3.1 3.9 1.4
v -3.1 4.3 1.9
v -3.1 4.3 1.4
v -1.6 3.8 2.1
v -1.6 3.8 1.3
v -1.6 4 1.8
v -1.6 4 1.5
v -1.6 4.2 1.8
v -1.6 4.2 1.5
v -1.6 4.4 2.1
v -1.6 4.4 1.3
v -1.3 2.3 2.2
v -1.3 2.3 2.1
v -1.3 2.4 2.2
v -1.3 2.4 2.1
v -1.2 2.1 2.2
v -1.2 2.1 1.8
v -1.2 2.2 2
v -1.2 2.2 1.9
v -1.2 2.3 2.2
v -1.2 2.3 2.1
v -1.2 2.3 2
v -1.2 2.3 1.9
v -1.2 2.4 2.2
v -1.2 2.4 2.1
v -1.2 2.4 1.8
v -1.2 2.7 2.2
v -1.2 2.7 1.8
v -1.2 2.8 2.2
v -1.2 2.8 2
v -1.2 2.8 1.9
v -1.2 2.8 1.8
v -1.2 3 2
v -1.2 3 1.9
v -1 0 2.8
v -1 0 1.3
v -1 0.2 2.8
v -1 0.2 2.5
v -1 0.4 2.5
v -1 0.4 1.3
v -1 0.5 2.3
v -1 0.5 1.3
v -1 1.8 1.3
v -1 1.8 1.1
v -1 2.1 2.2
v -1 2.1 1.8
v -1 2.4 2.3
v -1 2.4 2.2
v -1 2.4 1.8
v -1 2.4 1.1
v -1 2.8 2.2
v -1 2.8 1.8
v -1 3.8 2.1
v -1 3.8 1.3
v -1 4.4 2.3
v -1 4.4 2.1
v -1 4.4 1.3
v -1 4.4 1.1
v -0.7 0.4 2.1
v -0.7 0.4 1.5
v -0.7 0.5 2.1
v -0.7 0.5 1.5
v -0.7 4.4 2.3
v -0.7 4.4 1.1
v -0.7 4.5 2.3
v -0.7 4.5 1.1
v -0.7 6.2 2.5
v -0.7 6.2 0.8
v -0.7 6.5 2.5
v -0.7 6.5 0.8
v -0.5 4.5 2.3
v -0.5 4.5 1.1
v -0.5 4.7 2.3
v -0.5 4.7 1.1
v -0.5 5.1 2.3
v -0.5 5.1 1.1
v -0.5 5.3 2.3
v -0.5 5.3 2.1
v -0.5 5.4 2.3
v -0.5 5.4 2.1
v -0.5 5.6 1.3
v -0.5 5.6 1.1
v -0.5 5.8 2.3
v -0.5 5.8 2.1
v -0.5 6 2.3
v -0.5 6 2.1
v -0.5 6.2 2.3
v -0.5 6.2 1.3
v -0.5 6.2 1.1
v -0.5 6.5 2.5
v -0.5 6.5 2.3
v -0.5 6.5 1.1
v -0.5 6.7 2.3
v -0.5 6.7 1.1
v -0.5 6.9 2.5
v -0.5 6.9 2.3
v -0.3 4.7 1.8
v -0.3 4.7 1.5
v -0.3 4.9 2.1
v -0.3 4.9 1.8
v -0.3 4.9 1.5
v -0.3 4.9 1.3
v -0.3 5.1 2.1
v -0.3 5.1 1.3
v -0.3 6.5 2.8
v -0.3 6.5 2.5
v -0.3 6.7 2.8
v -0.3 6.7 2.5
v -0.3 6.7 2.1
v -0.3 6.7 1.3
v -0.3 6.9 2.1
v -0.3 6.9 1.3
v -0.2 5.6 2.5
v -0.2 5.6 2.3
v -0.2 5.8 2.5
v -0.2 5.8 2.3
v 0.0999999 0 2.8
v 0.0999999 0 1.3
v 0.0999999 0.2 2.8
v 0.0999999 0.2 2.5
v 0.0999999 0.4 2.5
v 0.0999999 0.4 1.3
v 0.0999999 0.5 2.3
v 0.0999999 0.5 1.3
v 0.0999999 1.8 2.3
v 0.0999999 1.8 1.3
v 0.3 0.4 2.1
v 0.3 0.4 1.5
v 0.3 0.5 2.1
v 0.3 0.5 1.5
v 2.5 3.9 1.9
v 2.5 3.9 1.4
v 2.5 4 1.8
v 2.5 4 1.5
v 2.5 4.2 1.8
v 2.5 4.2 1.5
v 2.5 4.3 1.9
v 2.5 4.3 1.4
v -2.7 3.9 1.9
v -2.7 3.9 1.4
v -2.7 4 1.8
v -2.7 4 1.5
v -2.7 4.2 1.8
v -2.7 4.2 1.5
v -2.7 4.3 1.9
v -2.7 4.3 1.4
v -1.1 2.8 2
v -1.1 2.8 1.9
v -1.1 3 2
v -1.1 3 1.9
v -0.5 0.4 2.1
v -0.5 0.4 1.5
v -0.5 0.5 2.1
v -0.5 0.5 1.5
v -0.3 0 2.8
v -0.3 0 1.3
v -0.3 0.2 2.8
v -0.3 0.2 2.5
v -0.3 0.4 2.5
v -0.3 0.4 1.3
v -0.3 0.5 2.3
v -0.3 0.5 1.3
v -0.3 1.8 2.3
v -0.3 1.8 1.3
v 0 5.6 2.5
v 0 5.6 2.3
v 0 5.8 2.5
v 0 5.8 2.3
v 0.0999999 4.7 1.8
v 0.0999999 4.7 1.5
v 0.0999999 4.9 2.1
v 0.0999999 4.9 1.8
v 0.0999999 4.9 1.5
v 0.0999999 4.9 1.3
v 0.0999999 5.1 2.1
v 0.0999999 5.1 1.3
v 0.0999999 6.5 2.8
v 0.0999999 6.5 2.5
v 0.0999999 6.7 2.8
v 0.0999999 6.7 2.5
v 0.0999999 6.7 2.1
v 0.0999999 6.7 1.3
v 0.0999999 6.9 2.1
v 0.0999999 6.9 1.3
v 0.3 4.5 2.3
v 0.3 4.5 1.1
v 0.3 4.7 2.3
v 0.3 4.7 1.1
v 0.3 5.1 2.3
v 0.3 5.1 1.1
v 0.3 5.3 2.3
v 0.3 5.3 2.1
v 0.3 5.4 2.3
v 0.3 5.4 2.1
v 0.3 5.6 1.3
v 0.3 5.6 1.1
v 0.3 5.8 2.3
v 0.3 5.8 2.1
v 0.3 6 2.3
v 0.3 6 2.1
v 0.3 6.2 2.3
v 0.3 6.2 1.3
v 0.3 6.2 1.1
v 0.3 6.5 2.5
v 0.3 6.5 2.3
v 0.3 6.5 1.1
v 0.3 6.7 2.3
v 0.3 6.7 1.1
v 0.3 6.9 2.5
v 0.3 6.9 2.3
v 0.5 0.4 2.1
v 0.5 0.4 1.5
v 0.5 0.5 2.1
v 0.5 0.5 1.5
v 0.5 4.4 2.3
v 0.5 4.4 1.1
v 0.5 4.5 2.3
v 0.5 4.5 1.1
v 0.5 6.2 2.5
v 0.5 6.2 0.8
v 0.5 6.5 2.5
v 0.5 6.5 0.8
v 0.8 0 2.8
v 0.8 0 1.3
v 0.8 0.2 2.8
v 0.8 0.2 2.5
v 0.8 0.4 2.5
v 0.8 0.4 1.3
v 0.8 0.5 2.3
v 0.8 0.5 1.3
v 0.8 1.8 1.3
v 0.8 1.8 1.1
v 0.8 2.4 2.3
v 0.8 2.4 1.1
v 0.8 3.8 2.1
v 0.8 3.8 1.3
v 0.8 4.4 2.3
v 0.8 4.4 2.1
v 0.8 4.4 1.3
v 0.8 4.4 1.1
v 1.4 3.8 2.1
v 1.4 3.8 1.3
v 1.4 4 1.8
v 1.4 4 1.5
v 1.4 4.2 1.8
v 1.4 4.2 1.5
v 1.4 4.4 2.1
v 1.4 4.4 1.3
v 2.9 3.9 1.9
v 2.9 3.9 1.4
v 2.9 4.3 1.9
v 2.9 4.3 1.4
v -1 0 2.8
v -1 0.2 2.8
v -0.3 0 2.8
v -0.3 0.2 2.8
v -0.3 6.5 2.8
v -0.3 6.7 2.8
v 0.0999999 0 2.8
v 0.0999999 0.2 2.8
v 0.0999999 6.5 2.8
v 0.0999999 6.7 2.8
v 0.8 0 2.8
v 0.8 0.2 2.8
v -1 0.2 2.5
v -1 0.4 2.5
v -0.7 6.2 2.5
v -0.7 6.5 2.5
v -0.5 6.4 2.5
v -0.5 6.5 2.5
v -0.5 6.9 2.5
v -0.3 0.2 2.5
v -0.3 0.4 2.5
v -0.3 6.5 2.5
v -0.3 6.7 2.5
v -0.2 5.6 2.5
v -0.2 5.8 2.5
v 0 5.6 2.5
v 0 5.8 2.5
v 0.0999999 0.2 2.5
v 0.0999999 0.4 2.5
v 0.0999999 6.5 2.5
v 0.0999999 6.7 2.5
v 0.3 6.4 2.5
v 0.3 6.5 2.5
v 0.3 6.9 2.5
v 0.5 6.2 2.5
v 0.5 6.5 2.5
v 0.8 0.2 2.5
v 0.8 0.4 2.5
v -1 0.5 2.3
v -1 2.4 2.3
v -1 4.4 2.3
v -0.7 4.4 2.3
v -0.7 4.5 2.3
v -0.5 4.5 2.3
v -0.5 4.7 2.3
v -0.5 5.1 2.3
v -0.5 5.3 2.3
v -0.5 5.4 2.3
v -0.5 5.8 2.3
v -0.5 6 2.3
v -0.5 6.2 2.3
v -0.3 0.5 2.3
v -0.3 1.8 2.3
v -0.2 5.6 2.3
v -0.2 5.8 2.3
v -0.2 6 2.3
v 0 5.6 2.3
v 0 5.8 2.3
v 0 6 2.3
v 0.0999999 0.5 2.3
v 0.0999999 1.8 2.3
v 0.3 4.5 2.3
v 0.3 4.7 2.3
v 0.3 5.1 2.3
v 0.3 5.3 2.3
v 0.3 5.4 2.3
v 0.3 5.8 2.3
v 0.3 6 2.3
v 0.3 6.2 2.3
v 0.5 4.4 2.3
v 0.5 4.5 2.3
v 0.8 0.5 2.3
v 0.8 2.4 2.3
v 0.8 4.4 2.3
v -1.3 2.3 2.2
v -1.3 2.4 2.2
v -1.2 2.1 2.2
v -1.2 2.3 2.2
v -1.2 2.4 2.2
v -1.2 2.7 2.2
v -1.2 2.8 2.2
v -1.1 2.4 2.2
v -1.1 2.7 2.2
v -1 2.1 2.2
v -1 2.4 2.2
v -1 2.8 2.2
v -1.6 3.8 2.1
v -1.6 4.4 2.1
v -1 3.8 2.1
v -1 4.4 2.1
v -0.7 0.4 2.1
v -0.7 0.5 2.1
v -0.5 0.4 2.1
v -0.5 0.5 2.1
v -0.3 4.9 2.1
v -0.3 5.1 2.1
v -0.3 6.7 2.1
v -0.3 6.9 2.1
v 0.0999999 4.9 2.1
v 0.0999999 5.1 2.1
v 0.0999999 6.7 2.1
v 0.0999999 6.9 2.1
v 0.3 0.4 2.1
v 0.3 0.5 2.1
v 0.5 0.4 2.1
v 0.5 0.5 2.1
v 0.8 3.8 2.1
v 0.8 4.4 2.1
v 1.4 3.8 2.1
v 1.4 4.4 2.1
v -1.2 2.8 2
v -1.2 3 2
v -1.1 2.8 2
v -1.1 3 2
v -3.1 3.9 1.9
v -3.1 4.3 1.9
v -2.7 3.9 1.9
v -2.7 4.3 1.9
v 2.5 3.9 1.9
v 2.5 4.3 1.9
v 2.9 3.9 1.9
v 2.9 4.3 1.9
v -2.7 4 1.8
v -2.7 4.2 1.8
v -1.6 4 1.8
v -1.6 4.2 1.8
v -0.3 4.7 1.8
v -0.3 4.9 1.8
v 0.0999999 4.7 1.8
v 0.0999999 4.9 1.8
v 1.4 4 1.8
v 1.4 4.2 1.8
v 2.5 4 1.8
v 2.5 4.2 1.8
v -0.5 6.7 2.3
v -0.5 6.9 2.3
v 0.3 6.7 2.3
v 0.3 6.9 2.3
v -1.3 2.3 2.1
v -1.3 2.4 2.1
v -1.2 2.3 2.1
v -1.2 2.4 2.1
v -1.2 2.8 1.9
v -1.2 3 1.9
v -1.1 2.8 1.9
v -1.1 3 1.9
v -1.2 2.1 1.8
v -1.2 2.4 1.8
v -1.2 2.7 1.8
v -1.2 2.8 1.8
v -1.1 2.4 1.8
v -1.1 2.7 1.8
v -1 2.1 1.8
v -1 2.4 1.8
v -1 2.8 1.8
v -2.7 4 1.5
v -2.7 4.2 1.5
v -1.6 4 1.5
v -1.6 4.2 1.5
v -0.7 0.4 1.5
v -0.7 0.5 1.5
v -0.5 0.4 1.5
v -0.5 0.5 1.5
v -0.3 4.7 1.5
v -0.3 4.9 1.5
v 0.0999999 4.7 1.5
v 0.0999999 4.9 1.5
v 0.3 0.4 1.5
v 0.3 0.5 1.5
v 0.5 0.4 1.5
v 0.5 0.5 1.5
v 1.4 4 1.5
v 1.4 4.2 1.5
v 2.5 4 1.5
v 2.5 4.2 1.5
v -3.1 3.9 1.4
v -3.1 4.3 1.4
v -2.7 3.9 1.4
v -2.7 4.3 1.4
v 2.5 3.9 1.4
v 2.5 4.3 1.4
v 2.9 3.9 1.4
v 2.9 4.3 1.4
v -1.6 3.8 1.3
v -1.6 4.4 1.3
v -1 0 1.3
v -1 0.4 1.3
v -1 0.5 1.3
v -1 1.8 1.3
v -1 3.8 1.3
v -1 4.4 1.3
v -0.3 0 1.3
v -0.3 0.4 1.3
v -0.3 0.5 1.3
v -0.3 1.8 1.3
v -0.3 4.9 1.3
v -0.3 5.1 1.3
v -0.3 6.7 1.3
v -0.3 6.9 1.3
v 0.0999999 0 1.3
v 0.0999999 0.4 1.3
v 0.0999999 0.5 1.3
v 0.0999999 1.8 1.3
v 0.0999999 4.9 1.3
v 0.0999999 5.1 1.3
v 0.0999999 6.7 1.3
v 0.0999999 6.9 1.3
v 0.8 0 1.3
v 0.8 0.4 1.3
v 0.8 0.5 1.3
v 0.8 1.8 1.3
v 0.8 3.8 1.3
v 0.8 4.4 1.3
v 1.4 3.8 1.3
v 1.4 4.4 1.3
v -1 1.8 1.1
v -1 2.4 1.1
v -1 4.4 1.1
v -0.7 4.4 1.1
v -0.7 4.5 1.1
v -0.5 4.5 1.1
v -0.5 4.7 1.1
v -0.5 5.1 1.1
v -0.5 5.6 1.1
v -0.5 6.2 1.1
v -0.5 6.5 1.1
v -0.5 6.7 1.1
v 0.3 4.5 1.1
v 0.3 4.7 1.1
v 0.3 5.1 1.1
v 0.3 5.6 1.1
v 0.3 6.2 1.1
v 0.3 6.5 1.1
v 0.3 6.7 1.1
v 0.5 4.4 1.1
v 0.5 4.5 1.1
v 0.8 1.8 1.1
v 0.8 2.4 1.1
v 0.8 4.4 1.1
v -0.7 6.2 0.8
v -0.7 6.5 0.8
v 0.5 6.2 0.8
v 0.5 6.5 0.8
v -1 0 2.8
v -0.3 0 2.8
v 0.0999999 0 2.8
v 0.8 0 2.8
v -1 0 1.3
v -0.3 0 1.3
v 0.0999999 0 1.3
v 0.8 0 1.3
v -1 0.5 2.3
v -0.3 0.5 2.3
v 0.0999999 0.5 2.3
v 0.8 0.5 2.3
v -0.7 0.5 2.1
v -0.5 0.5 2.1
v 0.3 0.5 2.1
v 0.5 0.5 2.1
v -0.7 0.5 1.5
v -0.5 0.5 1.5
v 0.3 0.5 1.5
v 0.5 0.5 1.5
v -1 0.5 1.3
v -0.3 0.5 1.3
v 0.0999999 0.5 1.3
v 0.8 0.5 1.3
v -0.3 1.8 2.3
v 0.0999999 1.8 2.3
v -1 1.8 1.3
v -0.3 1.8 1.3
v 0.0999999 1.8 1.3
v 0.8 1.8 1.3
v -1 1.8 1.1
v 0.8 1.8 1.1
v -1.2 2.1 2.2
v -1 2.1 2.2
v -1.2 2.1 1.8
v -1 2.1 1.8
v -1.3 2.3 2.2
v -1.2 2.3 2.2
v -1.3 2.3 2.1
v -1.2 2.3 2.1
v -1.6 3.8 2.1
v -1 3.8 2.1
v 0.8 3.8 2.1
v 1.4 3.8 2.1
v -1.6 3.8 1.3
v -1 3.8 1.3
v 0.8 3.8 1.3
v 1.4 3.8 1.3
v -3.1 3.9 1.9
v -2.7 3.9 1.9
v 2.5 3.9 1.9
v 2.9 3.9 1.9
v -3.1 3.9 1.4
v -2.7 3.9 1.4
v 2.5 3.9 1.4
v 2.9 3.9 1.4
v -2.7 4 1.8
v -1.6 4 1.8
v 1.4 4 1.8
v 2.5 4 1.8
v -2.7 4 1.5
v -1.6 4 1.5
v 1.4 4 1.5
v 2.5 4 1.5
v -0.3 4.9 2.1
v 0.0999999 4.9 2.1
v -0.3 4.9 1.8
v 0.0999999 4.9 1.8
v -0.3 4.9 1.5
v 0.0999999 4.9 1.5
v -0.3 4.9 1.3
v 0.0999999 4.9 1.3
v -0.5 5.1 2.3
v 0.3 5.1 2.3
v -0.3 5.1 2.1
v 0.0999999 5.1 2.1
v -0.3 5.1 1.3
v 0.0999999 5.1 1.3
v -0.5 5.1 1.1
v 0.3 5.1 1.1
v -0.2 5.6 2.5
v 0 5.6 2.5
v -0.2 5.6 2.3
v 0 5.6 2.3
v -0.7 6.2 2.5
v 0.5 6.2 2.5
v -0.5 6.2 2.3
v 0.3 6.2 2.3
v -0.5 6.2 1.3
v 0.3 6.2 1.3
v -0.5 6.2 1.1
v 0.3 6.2 1.1
v -0.7 6.2 0.8
v 0.5 6.2 0.8
v -0.3 6.5 2.8
v 0.0999999 6.5 2.8
v -0.3 6.5 2.5
v 0.0999999 6.5 2.5
v -1 0.2 2.8
v -0.3 0.2 2.8
v 0.0999999 0.2 2.8
v 0.8 0.2 2.8
v -1 0.2 2.5
v -0.3 0.2 2.5
v 0.0999999 0.2 2.5
v 0.8 0.2 2.5
v -1 0.4 2.5
v -0.3 0.4 2.5
v 0.0999999 0.4 2.5
v 0.8 0.4 2.5
v -0.7 0.4 2.1
v -0.5 0.4 2.1
v 0.3 0.4 2.1
v 0.5 0.4 2.1
v -0.7 0.4 1.5
v -0.5 0.4 1.5
v 0.3 0.4 1.5
v 0.5 0.4 1.5
v -1 0.4 1.3
v -0.3 0.4 1.3
v 0.0999999 0.4 1.3
v 0.8 0.4 1.3
v -1.3 2.4 2.2
v -1.2 2.4 2.2
v -1.3 2.4 2.1
v -1.2 2.4 2.1
v -1.2 2.8 2.2
v -1 2.8 2.2
v -1.2 2.8 2
v -1.1 2.8 2
v -1.2 2.8 1.9
v -1.1 2.8 1.9
v -1.2 2.8 1.8
v -1 2.8 1.8
v -1.2 3 2
v -1.1 3 2
v -1.2 3 1.9
v -1.1 3 1.9
v -2.7 4.2 1.8
v -1.6 4.2 1.8
v 1.4 4.2 1.8
v 2.5 4.2 1.8
v -2.7 4.2 1.5
v -1.6 4.2 1.5
v 1.4 4.2 1.5
v 2.5 4.2 1.5
v -3.1 4.3 1.9
v -2.7 4.3 1.9
v 2.5 4.3 1.9
v 2.9 4.3 1.9
v -3.1 4.3 1.4
v -2.7 4.3 1.4
v 2.5 4.3 1.4
v 2.9 4.3 1.4
v -1 4.4 2.3
v -0.7 4.4 2.3
v 0.5 4.4 2.3
v 0.8 4.4 2.3
v -1.6 4.4 2.1
v -1 4.4 2.1
v 0.8 4.4 2.1
v 1.4 4.4 2.1
v -1.6 4.4 1.3
v -1 4.4 1.3
v 0.8 4.4 1.3
v 1.4 4.4 1.3
v -1 4.4 1.1
v -0.7 4.4 1.1
v 0.5 4.4 1.1
v 0.8 4.4 1.1
v -0.7 4.5 2.3
v -0.5 4.5 2.3
v 0.3 4.5 2.3
v 0.5 4.5 2.3
v -0.7 4.5 1.1
v -0.5 4.5 1.1
v 0.3 4.5 1.1
v 0.5 4.5 1.1
v -0.5 4.7 2.3
v 0.3 4.7 2.3
v -0.3 4.7 1.8
v 0.0999999 4.7 1.8
v -0.3 4.7 1.5
v 0.0999999 4.7 1.5
v -0.5 4.7 1.1
v 0.3 4.7 1.1
v -0.2 5.8 2.5
v 0 5.8 2.5
v -0.2 5.8 2.3
v 0 5.8 2.3
v -0.7 6.5 2.5
v -0.5 6.5 2.5
v 0.3 6.5 2.5
v 0.5 6.5 2.5
v -0.5 6.5 2.3
v 0.3 6.5 2.3
v -0.5 6.5 1.1
v 0.3 6.5 1.1
v -0.7 6.5 0.8
v 0.5 6.5 0.8
v -0.3 6.7 2.8
v 0.0999999 6.7 2.8
v -0.3 6.7 2.5
v 0.0999999 6.7 2.5
v -0.5 6.7 2.3
v 0.3 6.7 2.3
v -0.3 6.7 2.1
v 0.0999999 6.7 2.1
v -0.3 6.7 1.3
v 0.0999999 6.7 1.3
v -0.5 6.7 1.1
v 0.3 6.7 1.1
v -0.5 6.9 2.5
v 0.3 6.9 2.5
v -0.5 6.9 2.3
v 0.3 6.9 2.3
v -0.3 6.9 2.1
v 0.0999999 6.9 2.1
v -0.3 6.9 1.3
v 0.0999999 6.9 1.3

# faces
f 3/3/1 2/3/1 1/3/1
f 4/3/1 2/3/1 3/3/1
f 7/9/1 6/9/1 5/9/1
f 8/9/1 6/9/1 7/9/1
f 9/9/1 7/9/1 5/9/1
f 10/9/1 6/9/1 8/9/1
f 11/9/1 9/9/1 5/9/1
f 11/9/1 10/9/1 9/9/1
f 12/9/1 6/9/1 10/9/1
f 12/9/1 10/9/1 11/9/1
f 15/12/1 14/12/1 13/12/1
f 16/12/1 14/12/1 15/12/1
f 19/10/1 18/10/1 17/10/1
f 20/10/1 18/10/1 19/10/1
f 21/10/1 19/10/1 17/10/1
f 22/10/1 19/10/1 21/10/1
f 23/6/1 20/6/1 19/6/1
f 23/10/1 19/10/1 22/10/1
f 24/10/1 18/10/1 20/10/1
f 24/6/1 20/6/1 23/6/1
f 26/10/1 23/10/1 22/10/1
f 26/10/1 24/10/1 23/10/1
f 27/10/1 18/10/1 24/10/1
f 27/10/1 24/10/1 26/10/1
f 28/11/1 26/11/1 25/11/1
f 28/11/1 27/11/1 26/11/1
f 29/11/1 27/11/1 28/11/1
f 30/10/1 29/10/1 28/10/1
f 31/10/1 29/10/1 30/10/1
f 32/10/1 29/10/1 31/10/1
f 33/10/1 29/10/1 32/10/1
f 34/6/1 32/6/1 31/6/1
f 35/6/1 32/6/1 34/6/1
f 38/5/1 37/5/1 36/5/1
f 39/5/1 37/5/1 38/5/1
f 40/5/1 37/5/1 39/5/1
f 41/5/1 37/5/1 40/5/1
f 44/4/1 43/4/1 42/4/1
f 46/4/1 44/4/1 42/4/1
f 46/4/1 45/4/1 44/4/1
f 47/4/1 45/4/1 46/4/1
f 48/4/1 46/4/1 42/4/1
f 49/4/1 46/4/1 48/4/1
f 50/4/1 45/4/1 47/4/1
f 51/4/1 45/4/1 50/4/1
f 52/9/1 49/9/1 48/9/1
f 53/9/1 51/9/1 50/9/1
f 54/9/1 53/9/1 52/9/1
f 55/9/1 51/9/1 53/9/1
f 55/9/1 53/9/1 54/9/1
f 56/9/1 52/9/1 48/9/1
f 56/9/1 54/9/1 52/9/1
f 57/9/1 54/9/1 56/9/1
f 58/9/1 51/9/1 55/9/1
f 59/9/1 51/9/1 58/9/1
f 62/13/1 61/13/1 60/13/1
f 63/13/1 61/13/1 62/13/1
f 66/9/1 65/9/1 64/9/1
f 67/9/1 65/9/1 66/9/1
f 70/1/1 69/1/1 68/1/1
f 71/1/1 69/1/1 70/1/1
f 74/9/1 73/9/1 72/9/1
f 75/9/1 73/9/1 74/9/1
f 78/3/1 77/3/1 76/3/1
f 79/3/1 77/3/1 78/3/1
f 80/7/1 79/7/1 78/7/1
f 81/3/1 77/3/1 79/3/1
f 81/7/1 79/7/1 80/7/1
f 82/3/1 81/3/1 80/3/1
f 82/3/1 77/3/1 81/3/1
f 83/3/1 77/3/1 82/3/1
f 84/3/1 82/3/1 80/3/1
f 85/3/1 82/3/1 84/3/1
f 86/14/1 85/14/1 84/14/1
f 87/3/1 82/3/1 85/3/1
f 87/14/1 85/14/1 86/14/1
f 88/3/1 87/3/1 86/3/1
f 89/4/1 83/4/1 82/4/1
f 89/3/1 87/3/1 88/3/1
f 89/3/1 82/3/1 87/3/1
f 90/4/1 83/4/1 89/4/1
f 94/8/1 92/8/1 91/8/1
f 94/1/1 93/1/1 92/1/1
f 95/1/1 93/1/1 94/1/1
f 96/8/1 94/8/1 91/8/1
f 97/8/1 94/8/1 96/8/1
f 101/3/1 99/3/1 98/3/1
f 102/3/1 99/3/1 101/3/1
f 104/3/1 101/3/1 100/3/1
f 104/3/1 103/3/1 102/3/1
f 104/3/1 102/3/1 101/3/1
f 105/3/1 103/3/1 104/3/1
f 108/2/1 107/2/1 106/2/1
f 109/2/1 107/2/1 108/2/1
f 112/1/1 111/1/1 110/1/1
f 113/1/1 111/1/1 112/1/1
f 116/3/1 115/3/1 114/3/1
f 117/3/1 115/3/1 116/3/1
f 120/5/1 119/5/1 118/5/1
f 121/5/1 119/5/1 120/5/1
f 122/5/1 119/5/1 121/5/1
f 123/5/1 119/5/1 122/5/1
f 126/4/1 125/4/1 124/4/1
f 127/4/1 125/4/1 126/4/1
f 130/13/1 129/13/1 128/13/1
f 131/13/1 129/13/1 130/13/1
f 134/3/1 133/3/1 132/3/1
f 135/3/1 133/3/1 134/3/1
f 136/3/1 134/3/1 132/3/1
f 137/3/1 133/3/1 135/3/1
f 138/3/1 136/3/1 132/3/1
f 138/3/1 137/3/1 136/3/1
f 139/3/1 133/3/1 137/3/1
f 139/3/1 137/3/1 138/3/1
f 140/3/2 141/3/2 142/3/2
f 142/3/2 141/3/2 143/3/2
f 140/3/2 142/3/2 144/3/2
f 143/3/2 141/3/2 145/3/2
f 140/3/2 144/3/2 146/3/2
f 144/3/2 145/3/2 146/3/2
f 145/3/2 141/3/2 147/3/2
f 146/3/2 145/3/2 147/3/2
f 148/6/2 149/6/2 150/6/2
f 150/6/2 149/6/2 151/6/2
f 152/13/2 153/13/2 154/13/2
f 154/13/2 153/13/2 155/13/2
f 156/5/2 157/5/2 158/5/2
f 158/5/2 157/5/2 159/5/2
f 159/5/2 157/5/2 160/5/2
f 160/5/2 157/5/2 161/5/2
f 162/4/2 163/4/2 164/4/2
f 164/4/2 163/4/2 165/4/2
f 166/3/2 167/3/2 168/3/2
f 168/3/2 167/3/2 169/3/2
f 170/3/2 171/3/2 173/3/2
f 173/3/2 171/3/2 174/3/2
f 172/3/2 173/3/2 176/3/2
f 174/3/2 175/3/2 176/3/2
f 173/3/2 174/3/2 176/3/2
f 176/3/2 175/3/2 177/3/2
f 178/2/2 179/2/2 180/2/2
f 180/2/2 179/2/2 181/2/2
f 182/1/2 183/1/2 184/1/2
f 184/1/2 183/1/2 185/1/2
f 186/9/2 187/9/2 188/9/2
f 188/9/2 187/9/2 189/9/2
f 190/3/2 191/3/2 192/3/2
f 192/3/2 191/3/2 193/3/2
f 192/7/2 193/7/2 194/7/2
f 193/3/2 191/3/2 195/3/2
f 194/7/2 193/7/2 195/7/2
f 194/3/2 195/3/2 196/3/2
f 195/3/2 191/3/2 196/3/2
f 196/3/2 191/3/2 197/3/2
f 194/3/2 196/3/2 198/3/2
f 198/3/2 196/3/2 199/3/2
f 198/14/2 199/14/2 200/14/2
f 199/3/2 196/3/2 201/3/2
f 200/14/2 199/14/2 201/14/2
f 200/3/2 201/3/2 202/3/2
f 196/4/2 197/4/2 203/4/2
f 202/3/2 201/3/2 203/3/2
f 201/3/2 196/3/2 203/3/2
f 203/4/2 197/4/2 204/4/2
f 205/8/2 206/8/2 208/8/2
f 206/1/2 207/1/2 208/1/2
f 208/1/2 207/1/2 209/1/2
f 205/8/2 208/8/2 210/8/2
f 210/8/2 208/8/2 211/8/2
f 212/13/2 213/13/2 214/13/2
f 214/13/2 213/13/2 215/13/2
f 216/9/2 217/9/2 218/9/2
f 218/9/2 217/9/2 219/9/2
f 220/1/2 221/1/2 222/1/2
f 222/1/2 221/1/2 223/1/2
f 224/5/2 225/5/2 226/5/2
f 226/5/2 225/5/2 227/5/2
f 227/5/2 225/5/2 228/5/2
f 228/5/2 225/5/2 229/5/2
f 230/4/2 231/4/2 232/4/2
f 230/4/2 232/4/2 234/4/2
f 232/4/2 233/4/2 234/4/2
f 234/4/2 233/4/2 235/4/2
f 234/9/2 235/9/2 236/9/2
f 236/9/2 235/9/2 237/9/2
f 234/9/2 236/9/2 238/9/2
f 238/9/2 236/9/2 239/9/2
f 237/9/2 235/9/2 240/9/2
f 240/9/2 235/9/2 241/9/2
f 242/9/2 243/9/2 244/9/2
f 244/9/2 243/9/2 245/9/2
f 242/9/2 244/9/2 246/9/2
f 245/9/2 243/9/2 247/9/2
f 242/9/2 246/9/2 248/9/2
f 246/9/2 247/9/2 248/9/2
f 247/9/2 243/9/2 249/9/2
f 248/9/2 247/9/2 249/9/2
f 250/3/2 251/3/2 252/3/2
f 252/3/2 251/3/2 253/3/2
f 256/5/3 255/5/3 254/5/3
f 257/5/3 255/5/3 256/5/3
f 262/2/3 259/2/3 258/2/3
f 263/2/3 259/2/3 262/2/3
f 264/5/3 261/5/3 260/5/3
f 265/5/3 261/5/3 264/5/3
f 270/1/3 269/1/3 268/1/3
f 271/1/3 269/1/3 270/1/3
f 273/5/3 267/5/3 266/5/3
f 274/5/3 267/5/3 273/5/3
f 275/8/3 272/8/3 271/8/3
f 275/8/3 271/8/3 270/8/3
f 276/8/3 272/8/3 275/8/3
f 279/3/3 278/3/3 277/3/3
f 280/3/3 278/3/3 279/3/3
f 283/8/3 275/8/3 270/8/3
f 284/8/3 272/8/3 276/8/3
f 285/8/3 283/8/3 270/8/3
f 285/8/3 284/8/3 283/8/3
f 285/1/3 270/1/3 268/1/3
f 286/8/3 284/8/3 285/8/3
f 287/8/3 272/8/3 284/8/3
f 287/8/3 284/8/3 286/8/3
f 288/1/3 286/1/3 285/1/3
f 288/1/3 285/1/3 268/1/3
f 289/1/3 286/1/3 288/1/3
f 290/5/3 282/5/3 281/5/3
f 291/5/3 282/5/3 290/5/3
f 295/9/3 294/9/3 293/9/3
f 297/9/3 296/9/3 295/9/3
f 305/4/3 293/4/3 292/4/3
f 306/4/3 293/4/3 305/4/3
f 307/3/3 302/3/3 301/3/3
f 308/14/3 303/14/3 302/14/3
f 308/3/3 302/3/3 307/3/3
f 309/3/3 304/3/3 303/3/3
f 309/14/3 303/14/3 308/14/3
f 310/3/3 307/3/3 301/3/3
f 311/3/3 309/3/3 308/3/3
f 312/3/3 304/3/3 309/3/3
f 312/3/3 309/3/3 311/3/3
f 314/4/3 293/4/3 306/4/3
f 315/9/3 297/9/3 295/9/3
f 315/9/3 298/9/3 297/9/3
f 316/9/3 298/9/3 315/9/3
f 317/3/3 300/3/3 299/3/3
f 318/7/3 301/7/3 300/7/3
f 318/3/3 300/3/3 317/3/3
f 319/3/3 311/3/3 310/3/3
f 319/7/3 301/7/3 318/7/3
f 319/3/3 310/3/3 301/3/3
f 320/14/3 312/14/3 311/14/3
f 320/3/3 311/3/3 319/3/3
f 321/3/3 304/3/3 312/3/3
f 321/14/3 312/14/3 320/14/3
f 322/3/3 304/3/3 321/3/3
f 323/9/3 295/9/3 293/9/3
f 323/9/3 315/9/3 295/9/3
f 324/9/3 315/9/3 323/9/3
f 325/4/3 314/4/3 313/4/3
f 326/4/3 293/4/3 314/4/3
f 326/4/3 314/4/3 325/4/3
f 326/9/3 323/9/3 293/9/3
f 327/9/3 323/9/3 326/9/3
f 331/12/3 329/12/3 328/12/3
f 332/12/3 329/12/3 331/12/3
f 335/10/3 331/10/3 330/10/3
f 335/10/3 332/10/3 331/10/3
f 335/11/3 333/11/3 332/11/3
f 336/10/3 334/10/3 333/10/3
f 336/11/3 333/11/3 335/11/3
f 337/10/3 335/10/3 330/10/3
f 337/10/3 336/10/3 335/10/3
f 338/10/3 336/10/3 337/10/3
f 339/10/3 334/10/3 336/10/3
f 339/10/3 336/10/3 338/10/3
f 342/9/3 341/9/3 340/9/3
f 343/9/3 341/9/3 342/9/3
f 346/13/3 345/13/3 344/13/3
f 347/13/3 345/13/3 346/13/3
f 352/3/3 349/3/3 348/3/3
f 353/3/3 349/3/3 352/3/3
f 354/1/3 351/1/3 350/1/3
f 355/1/3 351/1/3 354/1/3
f 358/13/3 357/13/3 356/13/3
f 359/13/3 357/13/3 358/13/3
f 362/9/3 361/9/3 360/9/3
f 363/9/3 361/9/3 362/9/3
f 366/6/3 365/6/3 364/6/3
f 367/6/3 365/6/3 366/6/3
f 370/3/3 369/3/3 368/3/3
f 371/3/3 369/3/3 370/3/3
f 374/3/3 373/3/3 372/3/3
f 375/3/3 373/3/3 374/3/3
f 378/3/3 377/3/3 376/3/3
f 379/3/3 377/3/3 378/3/3
f 382/3/3 381/3/3 380/3/3
f 383/3/3 381/3/3 382/3/3
f 386/3/3 385/3/3 384/3/3
f 387/3/3 385/3/3 386/3/3
f 388/8/4 389/8/4 390/8/4
f 390/8/4 389/8/4 391/8/4
f 392/12/4 393/12/4 394/12/4
f 394/12/4 393/12/4 395/12/4
f 396/6/4 397/6/4 398/6/4
f 398/6/4 397/6/4 399/6/4
f 400/10/4 401/10/4 404/10/4
f 401/11/4 402/11/4 404/11/4
f 402/10/4 403/10/4 405/10/4
f 404/11/4 402/11/4 405/11/4
f 400/10/4 404/10/4 406/10/4
f 404/10/4 405/10/4 406/10/4
f 406/10/4 405/10/4 407/10/4
f 405/10/4 403/10/4 408/10/4
f 407/10/4 405/10/4 408/10/4
f 409/3/4 410/3/4 411/3/4
f 411/3/4 410/3/4 412/3/4
f 413/13/4 414/13/4 415/13/4
f 415/13/4 414/13/4 416/13/4
f 417/3/4 418/3/4 419/3/4
f 419/3/4 418/3/4 420/3/4
f 421/13/4 422/13/4 423/13/4
f 423/13/4 422/13/4 424/13/4
f 425/3/4 426/3/4 427/3/4
f 427/3/4 426/3/4 428/3/4
f 429/3/4 430/3/4 431/3/4
f 431/3/4 430/3/4 432/3/4
f 433/3/4 434/3/4 435/3/4
f 435/3/4 434/3/4 436/3/4
f 437/9/4 438/9/4 443/9/4
f 443/9/4 438/9/4 444/9/4
f 439/5/4 440/5/4 445/5/4
f 445/5/4 440/5/4 446/5/4
f 441/4/4 442/4/4 447/4/4
f 447/4/4 442/4/4 448/4/4
f 449/3/4 450/3/4 457/3/4
f 457/3/4 450/3/4 458/3/4
f 451/1/4 452/1/4 459/1/4
f 459/1/4 452/1/4 460/1/4
f 453/5/4 454/5/4 461/5/4
f 461/5/4 454/5/4 462/5/4
f 455/4/4 456/4/4 463/4/4
f 463/4/4 456/4/4 464/4/4
f 465/9/4 466/9/4 467/9/4
f 467/9/4 466/9/4 468/9/4
f 470/9/4 471/9/4 472/9/4
f 472/9/4 473/9/4 474/9/4
f 472/9/4 474/9/4 481/9/4
f 474/9/4 475/9/4 481/9/4
f 481/9/4 475/9/4 482/9/4
f 476/3/4 477/3/4 483/3/4
f 477/4/4 478/4/4 484/4/4
f 483/3/4 477/3/4 484/3/4
f 484/4/4 478/4/4 485/4/4
f 479/1/4 480/1/4 486/1/4
f 486/1/4 480/1/4 487/1/4
f 470/9/4 472/9/4 488/9/4
f 472/9/4 481/9/4 488/9/4
f 488/9/4 481/9/4 489/9/4
f 469/4/4 470/4/4 490/4/4
f 470/9/4 488/9/4 491/9/4
f 490/4/4 470/4/4 491/4/4
f 491/9/4 488/9/4 492/9/4
f 493/1/4 494/1/4 495/1/4
f 495/1/4 494/1/4 496/1/4
f 501/5/5 498/5/5 497/5/5
f 502/5/5 498/5/5 501/5/5
f 503/5/5 500/5/5 499/5/5
f 504/5/5 500/5/5 503/5/5
f 509/4/5 506/4/5 505/4/5
f 510/4/5 506/4/5 509/4/5
f 511/4/5 508/4/5 507/4/5
f 512/4/5 508/4/5 511/4/5
f 513/4/5 509/4/5 505/4/5
f 514/4/5 506/4/5 510/4/5
f 515/4/5 511/4/5 507/4/5
f 516/4/5 508/4/5 512/4/5
f 517/4/5 513/4/5 505/4/5
f 517/4/5 514/4/5 513/4/5
f 518/4/5 506/4/5 514/4/5
f 518/4/5 514/4/5 517/4/5
f 519/4/5 516/4/5 515/4/5
f 519/4/5 515/4/5 507/4/5
f 520/4/5 508/4/5 516/4/5
f 520/4/5 516/4/5 519/4/5
f 524/4/5 522/4/5 521/4/5
f 525/4/5 522/4/5 524/4/5
f 527/4/5 524/4/5 523/4/5
f 527/4/5 526/4/5 525/4/5
f 527/4/5 525/4/5 524/4/5
f 528/4/5 526/4/5 527/4/5
f 531/10/5 530/10/5 529/10/5
f 532/10/5 530/10/5 531/10/5
f 535/12/5 534/12/5 533/12/5
f 536/12/5 534/12/5 535/12/5
f 541/9/5 538/9/5 537/9/5
f 542/9/5 538/9/5 541/9/5
f 543/9/5 540/9/5 539/9/5
f 544/9/5 540/9/5 543/9/5
f 549/3/5 546/3/5 545/3/5
f 550/3/5 546/3/5 549/3/5
f 551/3/5 548/3/5 547/3/5
f 552/3/5 548/3/5 551/3/5
f 557/3/5 554/3/5 553/3/5
f 558/3/5 554/3/5 557/3/5
f 559/3/5 556/3/5 555/3/5
f 560/3/5 556/3/5 559/3/5
f 563/3/5 562/3/5 561/3/5
f 564/3/5 562/3/5 563/3/5
f 567/3/5 566/3/5 565/3/5
f 568/3/5 566/3/5 567/3/5
f 571/3/5 570/3/5 569/3/5
f 572/3/5 570/3/5 571/3/5
f 573/3/5 571/3/5 569/3/5
f 574/3/5 570/3/5 572/3/5
f 575/3/5 573/3/5 569/3/5
f 575/3/5 574/3/5 573/3/5
f 576/3/5 570/3/5 574/3/5
f 576/3/5 574/3/5 575/3/5
f 579/3/5 578/3/5 577/3/5
f 580/3/5 578/3/5 579/3/5
f 583/1/5 582/1/5 581/1/5
f 584/1/5 582/1/5 583/1/5
f 585/1/5 583/1/5 581/1/5
f 586/1/5 582/1/5 584/1/5
f 587/1/5 585/1/5 581/1/5
f 588/1/5 582/1/5 586/1/5
f 589/1/5 587/1/5 581/1/5
f 589/1/5 588/1/5 587/1/5
f 590/1/5 582/1/5 588/1/5
f 590/1/5 588/1/5 589/1/5
f 593/2/5 592/2/5 591/2/5
f 594/2/5 592/2/5 593/2/5
f 595/5/6 596/5/6 599/5/6
f 599/5/6 596/5/6 600/5/6
f 597/5/6 598/5/6 601/5/6
f 601/5/6 598/5/6 602/5/6
f 603/5/6 604/5/6 607/5/6
f 607/5/6 604/5/6 608/5/6
f 605/5/6 606/5/6 609/5/6
f 609/5/6 606/5/6 610/5/6
f 603/5/6 607/5/6 611/5/6
f 608/5/6 604/5/6 612/5/6
f 605/5/6 609/5/6 613/5/6
f 610/5/6 606/5/6 614/5/6
f 603/5/6 611/5/6 615/5/6
f 611/5/6 612/5/6 615/5/6
f 612/5/6 604/5/6 616/5/6
f 615/5/6 612/5/6 616/5/6
f 613/5/6 614/5/6 617/5/6
f 605/5/6 613/5/6 617/5/6
f 614/5/6 606/5/6 618/5/6
f 617/5/6 614/5/6 618/5/6
f 619/12/6 620/12/6 621/12/6
f 621/12/6 620/12/6 622/12/6
f 623/10/6 624/10/6 625/10/6
f 625/10/6 624/10/6 626/10/6
f 626/10/6 624/10/6 628/10/6
f 627/10/6 628/10/6 629/10/6
f 628/10/6 624/10/6 630/10/6
f 629/10/6 628/10/6 630/10/6
f 631/6/6 632/6/6 633/6/6
f 633/6/6 632/6/6 634/6/6
f 635/3/6 636/3/6 639/3/6
f 639/3/6 636/3/6 640/3/6
f 637/3/6 638/3/6 641/3/6
f 641/3/6 638/3/6 642/3/6
f 643/3/6 644/3/6 647/3/6
f 647/3/6 644/3/6 648/3/6
f 645/3/6 646/3/6 649/3/6
f 649/3/6 646/3/6 650/3/6
f 651/9/6 652/9/6 656/9/6
f 653/9/6 654/9/6 657/9/6
f 655/9/6 656/9/6 659/9/6
f 656/9/6 652/9/6 660/9/6
f 659/9/6 656/9/6 660/9/6
f 657/9/6 658/9/6 661/9/6
f 653/9/6 657/9/6 661/9/6
f 661/9/6 658/9/6 662/9/6
f 660/9/6 652/9/6 663/9/6
f 663/9/6 652/9/6 664/9/6
f 653/9/6 661/9/6 665/9/6
f 665/9/6 661/9/6 666/9/6
f 667/9/6 668/9/6 671/9/6
f 671/9/6 668/9/6 672/9/6
f 669/9/6 670/9/6 673/9/6
f 673/9/6 670/9/6 674/9/6
f 675/9/6 676/9/6 677/9/6
f 677/9/6 676/9/6 678/9/6
f 675/9/6 677/9/6 679/9/6
f 678/9/6 676/9/6 680/9/6
f 675/9/6 679/9/6 681/9/6
f 679/9/6 680/9/6 681/9/6
f 680/9/6 676/9/6 682/9/6
f 681/9/6 680/9/6 682/9/6
f 683/3/6 684/3/6 685/3/6
f 685/3/6 684/3/6 686/3/6
f 687/1/6 688/1/6 691/1/6
f 689/1/6 690/1/6 692/1/6
f 687/1/6 691/1/6 693/1/6
f 692/1/6 690/1/6 694/1/6
f 687/1/6 693/1/6 695/1/6
f 693/1/6 694/1/6 695/1/6
f 694/1/6 690/1/6 696/1/6
f 695/1/6 694/1/6 696/1/6
f 697/2/6 698/2/6 699/2/6
f 699/2/6 698/2/6 700/2/6
f 701/1/6 702/1/6 703/1/6
f 703/1/6 702/1/6 704/1/6
f 701/1/6 703/1/6 705/1/6
f 704/1/6 702/1/6 706/1/6
f 701/1/6 705/1/6 707/1/6
f 705/1/6 706/1/6 707/1/6
f 706/1/6 702/1/6 708/1/6
f 707/1/6 706/1/6 708/1/6
f 709/8/6 710/8/6 711/8/6
f 711/8/6 710/8/6 712/8/6
f 713/1/6 714/1/6 715/1/6
f 715/1/6 714/1/6 716/1/6
