# MagicaVoxel @ Ephtracy

# group
o 

# material
mtllib Lift_Sides.mtl
usemtl palette

# normals
vn -1 0 0
vn 1 0 0
vn 0 0 1
vn 0 0 -1
vn 0 -1 0
vn 0 1 0

# texcoords
vt 0.0449219 0.5
vt 0.888672 0.5

# verts
v -1.9 0.3 1
v -1.9 0.3 -0.3
v -1.9 0.4 1
v -1.9 0.4 -0.3
v -1.9 0.7 1
v -1.9 0.7 -0.3
v -1.9 0.8 1
v -1.9 0.8 -0.3
v -1.7 0.4 1
v -1.7 0.4 -0.3
v -1.7 0.7 1
v -1.7 0.7 -0.3
v -0.7 0.5 1.1
v -0.7 0.5 1
v -0.7 0.5 -0.3
v -0.7 0.5 -0.4
v -0.7 0.6 1.1
v -0.7 0.6 1
v -0.7 0.6 -0.3
v -0.7 0.6 -0.4
v -0.6 0.4 1.1
v -0.6 0.4 1
v -0.6 0.4 -0.3
v -0.6 0.4 -0.4
v -0.6 0.5 1.1
v -0.6 0.5 1
v -0.6 0.5 -0.3
v -0.6 0.5 -0.4
v -0.6 0.6 1.1
v -0.6 0.6 1
v -0.6 0.6 -0.3
v -0.6 0.6 -0.4
v -0.6 0.7 1.1
v -0.6 0.7 1
v -0.6 0.7 -0.3
v -0.6 0.7 -0.4
v -0.5 0.3 1.1
v -0.5 0.3 1
v -0.5 0.3 -0.3
v -0.5 0.3 -0.4
v -0.5 0.4 1.1
v -0.5 0.4 1
v -0.5 0.4 -0.3
v -0.5 0.4 -0.4
v -0.5 0.7 1.1
v -0.5 0.7 1
v -0.5 0.7 -0.3
v -0.5 0.7 -0.4
v -0.5 0.8 1.1
v -0.5 0.8 1
v -0.5 0.8 -0.3
v -0.5 0.8 -0.4
v -0.3 0.4 1.1
v -0.3 0.4 1
v -0.3 0.4 -0.3
v -0.3 0.4 -0.4
v -0.3 0.7 1.1
v -0.3 0.7 1
v -0.3 0.7 -0.3
v -0.3 0.7 -0.4
v 0.3 0.3 1.1
v 0.3 0.3 1
v 0.3 0.3 -0.3
v 0.3 0.3 -0.4
v 0.3 0.8 1.1
v 0.3 0.8 1
v 0.3 0.8 -0.3
v 0.3 0.8 -0.4
v 0.6 0.4 1.1
v 0.6 0.4 1
v 0.6 0.4 -0.3
v 0.6 0.4 -0.4
v 0.6 0.5 1.1
v 0.6 0.5 1
v 0.6 0.5 -0.3
v 0.6 0.5 -0.4
v 0.6 0.6 1.1
v 0.6 0.6 1
v 0.6 0.6 -0.3
v 0.6 0.6 -0.4
v 0.6 0.7 1.1
v 0.6 0.7 1
v 0.6 0.7 -0.3
v 0.6 0.7 -0.4
v 0.7 0.5 1.1
v 0.7 0.5 1
v 0.7 0.5 -0.3
v 0.7 0.5 -0.4
v 0.7 0.6 1.1
v 0.7 0.6 1
v 0.7 0.6 -0.3
v 0.7 0.6 -0.4
v -0.6 0.5 1.1
v -0.6 0.5 1
v -0.6 0.5 -0.3
v -0.6 0.5 -0.4
v -0.6 0.6 1.1
v -0.6 0.6 1
v -0.6 0.6 -0.3
v -0.6 0.6 -0.4
v -0.5 0.4 1.1
v -0.5 0.4 1
v -0.5 0.4 -0.3
v -0.5 0.4 -0.4
v -0.5 0.5 1.1
v -0.5 0.5 1
v -0.5 0.5 -0.3
v -0.5 0.5 -0.4
v -0.5 0.6 1.1
v -0.5 0.6 1
v -0.5 0.6 -0.3
v -0.5 0.6 -0.4
v -0.5 0.7 1.1
v -0.5 0.7 1
v -0.5 0.7 -0.3
v -0.5 0.7 -0.4
v -0.2 0.3 1.1
v -0.2 0.3 1
v -0.2 0.3 -0.3
v -0.2 0.3 -0.4
v -0.2 0.8 1.1
v -0.2 0.8 1
v -0.2 0.8 -0.3
v -0.2 0.8 -0.4
v 0.4 0.4 1.1
v 0.4 0.4 1
v 0.4 0.4 -0.3
v 0.4 0.4 -0.4
v 0.4 0.7 1.1
v 0.4 0.7 1
v 0.4 0.7 -0.3
v 0.4 0.7 -0.4
v 0.6 0.3 1.1
v 0.6 0.3 1
v 0.6 0.3 -0.3
v 0.6 0.3 -0.4
v 0.6 0.4 1.1
v 0.6 0.4 1
v 0.6 0.4 -0.3
v 0.6 0.4 -0.4
v 0.6 0.7 1.1
v 0.6 0.7 1
v 0.6 0.7 -0.3
v 0.6 0.7 -0.4
v 0.6 0.8 1.1
v 0.6 0.8 1
v 0.6 0.8 -0.3
v 0.6 0.8 -0.4
v 0.7 0.4 1.1
v 0.7 0.4 1
v 0.7 0.4 -0.3
v 0.7 0.4 -0.4
v 0.7 0.5 1.1
v 0.7 0.5 1
v 0.7 0.5 -0.3
v 0.7 0.5 -0.4
v 0.7 0.6 1.1
v 0.7 0.6 1
v 0.7 0.6 -0.3
v 0.7 0.6 -0.4
v 0.7 0.7 1.1
v 0.7 0.7 1
v 0.7 0.7 -0.3
v 0.7 0.7 -0.4
v 0.8 0.5 1.1
v 0.8 0.5 1
v 0.8 0.5 -0.3
v 0.8 0.5 -0.4
v 0.8 0.6 1.1
v 0.8 0.6 1
v 0.8 0.6 -0.3
v 0.8 0.6 -0.4
v 1.8 0.4 1
v 1.8 0.4 -0.3
v 1.8 0.7 1
v 1.8 0.7 -0.3
v 2 0.3 1
v 2 0.3 -0.3
v 2 0.4 1
v 2 0.4 -0.3
v 2 0.7 1
v 2 0.7 -0.3
v 2 0.8 1
v 2 0.8 -0.3
v -0.7 0.5 1.1
v -0.7 0.6 1.1
v -0.6 0.4 1.1
v -0.6 0.5 1.1
v -0.6 0.6 1.1
v -0.6 0.7 1.1
v -0.5 0.3 1.1
v -0.5 0.4 1.1
v -0.5 0.5 1.1
v -0.5 0.6 1.1
v -0.5 0.7 1.1
v -0.5 0.8 1.1
v -0.3 0.4 1.1
v -0.3 0.7 1.1
v -0.2 0.3 1.1
v -0.2 0.8 1.1
v 0.3 0.3 1.1
v 0.3 0.8 1.1
v 0.4 0.4 1.1
v 0.4 0.7 1.1
v 0.6 0.3 1.1
v 0.6 0.4 1.1
v 0.6 0.5 1.1
v 0.6 0.6 1.1
v 0.6 0.7 1.1
v 0.6 0.8 1.1
v 0.7 0.4 1.1
v 0.7 0.5 1.1
v 0.7 0.6 1.1
v 0.7 0.7 1.1
v 0.8 0.5 1.1
v 0.8 0.6 1.1
v -1.9 0.3 1
v -1.9 0.4 1
v -1.9 0.7 1
v -1.9 0.8 1
v -1.7 0.4 1
v -1.7 0.7 1
v -0.7 0.5 1
v -0.7 0.6 1
v -0.6 0.4 1
v -0.6 0.5 1
v -0.6 0.6 1
v -0.6 0.7 1
v -0.5 0.3 1
v -0.5 0.4 1
v -0.5 0.7 1
v -0.5 0.8 1
v -0.2 0.3 1
v -0.2 0.8 1
v 0.3 0.3 1
v 0.3 0.8 1
v 0.6 0.3 1
v 0.6 0.4 1
v 0.6 0.7 1
v 0.6 0.8 1
v 0.7 0.4 1
v 0.7 0.5 1
v 0.7 0.6 1
v 0.7 0.7 1
v 0.8 0.5 1
v 0.8 0.6 1
v 1.8 0.4 1
v 1.8 0.7 1
v 2 0.3 1
v 2 0.4 1
v 2 0.7 1
v 2 0.8 1
v -1.9 0.3 -0.3
v -1.9 0.4 -0.3
v -1.9 0.7 -0.3
v -1.9 0.8 -0.3
v -1.7 0.4 -0.3
v -1.7 0.7 -0.3
v -0.7 0.5 -0.3
v -0.7 0.6 -0.3
v -0.6 0.4 -0.3
v -0.6 0.5 -0.3
v -0.6 0.6 -0.3
v -0.6 0.7 -0.3
v -0.5 0.3 -0.3
v -0.5 0.4 -0.3
v -0.5 0.7 -0.3
v -0.5 0.8 -0.3
v -0.2 0.3 -0.3
v -0.2 0.8 -0.3
v 0.3 0.3 -0.3
v 0.3 0.8 -0.3
v 0.6 0.3 -0.3
v 0.6 0.4 -0.3
v 0.6 0.7 -0.3
v 0.6 0.8 -0.3
v 0.7 0.4 -0.3
v 0.7 0.5 -0.3
v 0.7 0.6 -0.3
v 0.7 0.7 -0.3
v 0.8 0.5 -0.3
v 0.8 0.6 -0.3
v 1.8 0.4 -0.3
v 1.8 0.7 -0.3
v 2 0.3 -0.3
v 2 0.4 -0.3
v 2 0.7 -0.3
v 2 0.8 -0.3
v -0.7 0.5 -0.4
v -0.7 0.6 -0.4
v -0.6 0.4 -0.4
v -0.6 0.5 -0.4
v -0.6 0.6 -0.4
v -0.6 0.7 -0.4
v -0.5 0.3 -0.4
v -0.5 0.4 -0.4
v -0.5 0.5 -0.4
v -0.5 0.6 -0.4
v -0.5 0.7 -0.4
v -0.5 0.8 -0.4
v -0.3 0.4 -0.4
v -0.3 0.7 -0.4
v -0.2 0.3 -0.4
v -0.2 0.8 -0.4
v 0.3 0.3 -0.4
v 0.3 0.8 -0.4
v 0.4 0.4 -0.4
v 0.4 0.7 -0.4
v 0.6 0.3 -0.4
v 0.6 0.4 -0.4
v 0.6 0.5 -0.4
v 0.6 0.6 -0.4
v 0.6 0.7 -0.4
v 0.6 0.8 -0.4
v 0.7 0.4 -0.4
v 0.7 0.5 -0.4
v 0.7 0.6 -0.4
v 0.7 0.7 -0.4
v 0.8 0.5 -0.4
v 0.8 0.6 -0.4
v -0.5 0.3 1.1
v -0.2 0.3 1.1
v 0.3 0.3 1.1
v 0.6 0.3 1.1
v -1.9 0.3 1
v -0.5 0.3 1
v -0.2 0.3 1
v 0.3 0.3 1
v 0.6 0.3 1
v 2 0.3 1
v -1.9 0.3 -0.3
v -0.5 0.3 -0.3
v -0.2 0.3 -0.3
v 0.3 0.3 -0.3
v 0.6 0.3 -0.3
v 2 0.3 -0.3
v -0.5 0.3 -0.4
v -0.2 0.3 -0.4
v 0.3 0.3 -0.4
v 0.6 0.3 -0.4
v -0.6 0.4 1.1
v -0.5 0.4 1.1
v 0.6 0.4 1.1
v 0.7 0.4 1.1
v -0.6 0.4 1
v -0.5 0.4 1
v 0.6 0.4 1
v 0.7 0.4 1
v -0.6 0.4 -0.3
v -0.5 0.4 -0.3
v 0.6 0.4 -0.3
v 0.7 0.4 -0.3
v -0.6 0.4 -0.4
v -0.5 0.4 -0.4
v 0.6 0.4 -0.4
v 0.7 0.4 -0.4
v -0.7 0.5 1.1
v -0.6 0.5 1.1
v 0.7 0.5 1.1
v 0.8 0.5 1.1
v -0.7 0.5 1
v -0.6 0.5 1
v 0.7 0.5 1
v 0.8 0.5 1
v -0.7 0.5 -0.3
v -0.6 0.5 -0.3
v 0.7 0.5 -0.3
v 0.8 0.5 -0.3
v -0.7 0.5 -0.4
v -0.6 0.5 -0.4
v 0.7 0.5 -0.4
v 0.8 0.5 -0.4
v -0.6 0.6 1.1
v -0.5 0.6 1.1
v 0.6 0.6 1.1
v 0.7 0.6 1.1
v -0.6 0.6 1
v -0.5 0.6 1
v 0.6 0.6 1
v 0.7 0.6 1
v -0.6 0.6 -0.3
v -0.5 0.6 -0.3
v 0.6 0.6 -0.3
v 0.7 0.6 -0.3
v -0.6 0.6 -0.4
v -0.5 0.6 -0.4
v 0.6 0.6 -0.4
v 0.7 0.6 -0.4
v -0.5 0.7 1.1
v -0.3 0.7 1.1
v 0.4 0.7 1.1
v 0.6 0.7 1.1
v -1.9 0.7 1
v -1.7 0.7 1
v -0.5 0.7 1
v -0.3 0.7 1
v 0.4 0.7 1
v 0.6 0.7 1
v 1.8 0.7 1
v 2 0.7 1
v -1.9 0.7 -0.3
v -1.7 0.7 -0.3
v -0.5 0.7 -0.3
v -0.3 0.7 -0.3
v 0.4 0.7 -0.3
v 0.6 0.7 -0.3
v 1.8 0.7 -0.3
v 2 0.7 -0.3
v -0.5 0.7 -0.4
v -0.3 0.7 -0.4
v 0.4 0.7 -0.4
v 0.6 0.7 -0.4
v -0.5 0.4 1.1
v -0.3 0.4 1.1
v 0.4 0.4 1.1
v 0.6 0.4 1.1
v -1.9 0.4 1
v -1.7 0.4 1
v -0.5 0.4 1
v -0.3 0.4 1
v 0.4 0.4 1
v 0.6 0.4 1
v 1.8 0.4 1
v 2 0.4 1
v -1.9 0.4 -0.3
v -1.7 0.4 -0.3
v -0.5 0.4 -0.3
v -0.3 0.4 -0.3
v 0.4 0.4 -0.3
v 0.6 0.4 -0.3
v 1.8 0.4 -0.3
v 2 0.4 -0.3
v -0.5 0.4 -0.4
v -0.3 0.4 -0.4
v 0.4 0.4 -0.4
v 0.6 0.4 -0.4
v -0.6 0.5 1.1
v -0.5 0.5 1.1
v 0.6 0.5 1.1
v 0.7 0.5 1.1
v -0.6 0.5 1
v -0.5 0.5 1
v 0.6 0.5 1
v 0.7 0.5 1
v -0.6 0.5 -0.3
v -0.5 0.5 -0.3
v 0.6 0.5 -0.3
v 0.7 0.5 -0.3
v -0.6 0.5 -0.4
v -0.5 0.5 -0.4
v 0.6 0.5 -0.4
v 0.7 0.5 -0.4
v -0.7 0.6 1.1
v -0.6 0.6 1.1
v 0.7 0.6 1.1
v 0.8 0.6 1.1
v -0.7 0.6 1
v -0.6 0.6 1
v 0.7 0.6 1
v 0.8 0.6 1
v -0.7 0.6 -0.3
v -0.6 0.6 -0.3
v 0.7 0.6 -0.3
v 0.8 0.6 -0.3
v -0.7 0.6 -0.4
v -0.6 0.6 -0.4
v 0.7 0.6 -0.4
v 0.8 0.6 -0.4
v -0.6 0.7 1.1
v -0.5 0.7 1.1
v 0.6 0.7 1.1
v 0.7 0.7 1.1
v -0.6 0.7 1
v -0.5 0.7 1
v 0.6 0.7 1
v 0.7 0.7 1
v -0.6 0.7 -0.3
v -0.5 0.7 -0.3
v 0.6 0.7 -0.3
v 0.7 0.7 -0.3
v -0.6 0.7 -0.4
v -0.5 0.7 -0.4
v 0.6 0.7 -0.4
v 0.7 0.7 -0.4
v -0.5 0.8 1.1
v -0.2 0.8 1.1
v 0.3 0.8 1.1
v 0.6 0.8 1.1
v -1.9 0.8 1
v -0.5 0.8 1
v -0.2 0.8 1
v 0.3 0.8 1
v 0.6 0.8 1
v 2 0.8 1
v -1.9 0.8 -0.3
v -0.5 0.8 -0.3
v -0.2 0.8 -0.3
v 0.3 0.8 -0.3
v 0.6 0.8 -0.3
v 2 0.8 -0.3
v -0.5 0.8 -0.4
v -0.2 0.8 -0.4
v 0.3 0.8 -0.4
v 0.6 0.8 -0.4

# faces
f 3/1/1 2/1/1 1/1/1
f 4/1/1 2/1/1 3/1/1
f 7/1/1 6/1/1 5/1/1
f 8/1/1 6/1/1 7/1/1
f 11/1/1 10/1/1 9/1/1
f 12/1/1 10/1/1 11/1/1
f 17/2/1 14/2/1 13/2/1
f 18/2/1 14/2/1 17/2/1
f 19/2/1 16/2/1 15/2/1
f 20/2/1 16/2/1 19/2/1
f 25/2/1 22/2/1 21/2/1
f 26/2/1 22/2/1 25/2/1
f 27/2/1 24/2/1 23/2/1
f 28/2/1 24/2/1 27/2/1
f 33/2/1 30/2/1 29/2/1
f 34/2/1 30/2/1 33/2/1
f 35/2/1 32/2/1 31/2/1
f 36/2/1 32/2/1 35/2/1
f 41/2/1 38/2/1 37/2/1
f 42/2/1 38/2/1 41/2/1
f 43/2/1 40/2/1 39/2/1
f 44/2/1 40/2/1 43/2/1
f 49/2/1 46/2/1 45/2/1
f 50/2/1 46/2/1 49/2/1
f 51/2/1 48/2/1 47/2/1
f 52/2/1 48/2/1 51/2/1
f 57/2/1 54/2/1 53/2/1
f 58/1/1 55/1/1 54/1/1
f 58/2/1 54/2/1 57/2/1
f 59/2/1 56/2/1 55/2/1
f 59/1/1 55/1/1 58/1/1
f 60/2/1 56/2/1 59/2/1
f 65/2/1 62/2/1 61/2/1
f 66/2/1 62/2/1 65/2/1
f 67/2/1 64/2/1 63/2/1
f 68/2/1 64/2/1 67/2/1
f 73/2/1 70/2/1 69/2/1
f 74/1/1 71/1/1 70/1/1
f 74/2/1 70/2/1 73/2/1
f 75/2/1 72/2/1 71/2/1
f 75/1/1 71/1/1 74/1/1
f 76/2/1 72/2/1 75/2/1
f 81/2/1 78/2/1 77/2/1
f 82/1/1 79/1/1 78/1/1
f 82/2/1 78/2/1 81/2/1
f 83/2/1 80/2/1 79/2/1
f 83/1/1 79/1/1 82/1/1
f 84/2/1 80/2/1 83/2/1
f 89/2/1 86/2/1 85/2/1
f 90/1/1 87/1/1 86/1/1
f 90/2/1 86/2/1 89/2/1
f 91/2/1 88/2/1 87/2/1
f 91/1/1 87/1/1 90/1/1
f 92/2/1 88/2/1 91/2/1
f 93/2/2 94/2/2 97/2/2
f 94/1/2 95/1/2 98/1/2
f 97/2/2 94/2/2 98/2/2
f 95/2/2 96/2/2 99/2/2
f 98/1/2 95/1/2 99/1/2
f 99/2/2 96/2/2 100/2/2
f 101/2/2 102/2/2 105/2/2
f 102/1/2 103/1/2 106/1/2
f 105/2/2 102/2/2 106/2/2
f 103/2/2 104/2/2 107/2/2
f 106/1/2 103/1/2 107/1/2
f 107/2/2 104/2/2 108/2/2
f 109/2/2 110/2/2 113/2/2
f 110/1/2 111/1/2 114/1/2
f 113/2/2 110/2/2 114/2/2
f 111/2/2 112/2/2 115/2/2
f 114/1/2 111/1/2 115/1/2
f 115/2/2 112/2/2 116/2/2
f 117/2/2 118/2/2 121/2/2
f 121/2/2 118/2/2 122/2/2
f 119/2/2 120/2/2 123/2/2
f 123/2/2 120/2/2 124/2/2
f 125/2/2 126/2/2 129/2/2
f 126/1/2 127/1/2 130/1/2
f 129/2/2 126/2/2 130/2/2
f 127/2/2 128/2/2 131/2/2
f 130/1/2 127/1/2 131/1/2
f 131/2/2 128/2/2 132/2/2
f 133/2/2 134/2/2 137/2/2
f 137/2/2 134/2/2 138/2/2
f 135/2/2 136/2/2 139/2/2
f 139/2/2 136/2/2 140/2/2
f 141/2/2 142/2/2 145/2/2
f 145/2/2 142/2/2 146/2/2
f 143/2/2 144/2/2 147/2/2
f 147/2/2 144/2/2 148/2/2
f 149/2/2 150/2/2 153/2/2
f 153/2/2 150/2/2 154/2/2
f 151/2/2 152/2/2 155/2/2
f 155/2/2 152/2/2 156/2/2
f 157/2/2 158/2/2 161/2/2
f 161/2/2 158/2/2 162/2/2
f 159/2/2 160/2/2 163/2/2
f 163/2/2 160/2/2 164/2/2
f 165/2/2 166/2/2 169/2/2
f 169/2/2 166/2/2 170/2/2
f 167/2/2 168/2/2 171/2/2
f 171/2/2 168/2/2 172/2/2
f 173/1/2 174/1/2 175/1/2
f 175/1/2 174/1/2 176/1/2
f 177/1/2 178/1/2 179/1/2
f 179/1/2 178/1/2 180/1/2
f 181/1/2 182/1/2 183/1/2
f 183/1/2 182/1/2 184/1/2
f 188/2/3 186/2/3 185/2/3
f 189/2/3 186/2/3 188/2/3
f 192/2/3 188/2/3 187/2/3
f 193/2/3 188/2/3 192/2/3
f 194/2/3 190/2/3 189/2/3
f 195/2/3 190/2/3 194/2/3
f 197/2/3 192/2/3 191/2/3
f 198/2/3 196/2/3 195/2/3
f 199/2/3 197/2/3 191/2/3
f 199/2/3 198/2/3 197/2/3
f 200/2/3 196/2/3 198/2/3
f 200/2/3 198/2/3 199/2/3
f 203/2/3 202/2/3 201/2/3
f 204/2/3 202/2/3 203/2/3
f 205/2/3 203/2/3 201/2/3
f 206/2/3 203/2/3 205/2/3
f 209/2/3 202/2/3 204/2/3
f 210/2/3 202/2/3 209/2/3
f 211/2/3 207/2/3 206/2/3
f 212/2/3 207/2/3 211/2/3
f 213/2/3 209/2/3 208/2/3
f 214/2/3 209/2/3 213/2/3
f 215/2/3 213/2/3 212/2/3
f 216/2/3 213/2/3 215/2/3
f 221/1/3 218/1/3 217/1/3
f 222/1/3 220/1/3 219/1/3
f 223/1/3 222/1/3 221/1/3
f 224/1/3 222/1/3 223/1/3
f 225/1/3 221/1/3 217/1/3
f 225/1/3 223/1/3 221/1/3
f 226/1/3 223/1/3 225/1/3
f 227/1/3 222/1/3 224/1/3
f 228/1/3 220/1/3 222/1/3
f 228/1/3 222/1/3 227/1/3
f 229/1/3 225/1/3 217/1/3
f 230/1/3 225/1/3 229/1/3
f 231/1/3 220/1/3 228/1/3
f 232/1/3 220/1/3 231/1/3
f 235/1/3 234/1/3 233/1/3
f 236/1/3 234/1/3 235/1/3
f 241/1/3 238/1/3 237/1/3
f 244/1/3 240/1/3 239/1/3
f 245/1/3 242/1/3 241/1/3
f 246/1/3 244/1/3 243/1/3
f 247/1/3 245/1/3 241/1/3
f 247/1/3 246/1/3 245/1/3
f 247/1/3 241/1/3 237/1/3
f 248/1/3 244/1/3 246/1/3
f 248/1/3 246/1/3 247/1/3
f 248/1/3 240/1/3 244/1/3
f 249/1/3 247/1/3 237/1/3
f 250/1/3 247/1/3 249/1/3
f 251/1/3 240/1/3 248/1/3
f 252/1/3 240/1/3 251/1/3
f 253/1/4 254/1/4 257/1/4
f 255/1/4 256/1/4 258/1/4
f 257/1/4 258/1/4 259/1/4
f 259/1/4 258/1/4 260/1/4
f 253/1/4 257/1/4 261/1/4
f 257/1/4 259/1/4 261/1/4
f 261/1/4 259/1/4 262/1/4
f 260/1/4 258/1/4 263/1/4
f 258/1/4 256/1/4 264/1/4
f 263/1/4 258/1/4 264/1/4
f 253/1/4 261/1/4 265/1/4
f 265/1/4 261/1/4 266/1/4
f 264/1/4 256/1/4 267/1/4
f 267/1/4 256/1/4 268/1/4
f 269/1/4 270/1/4 271/1/4
f 271/1/4 270/1/4 272/1/4
f 273/1/4 274/1/4 277/1/4
f 275/1/4 276/1/4 280/1/4
f 277/1/4 278/1/4 281/1/4
f 279/1/4 280/1/4 282/1/4
f 277/1/4 281/1/4 283/1/4
f 281/1/4 282/1/4 283/1/4
f 273/1/4 277/1/4 283/1/4
f 282/1/4 280/1/4 284/1/4
f 283/1/4 282/1/4 284/1/4
f 280/1/4 276/1/4 284/1/4
f 273/1/4 283/1/4 285/1/4
f 285/1/4 283/1/4 286/1/4
f 284/1/4 276/1/4 287/1/4
f 287/1/4 276/1/4 288/1/4
f 289/2/4 290/2/4 292/2/4
f 292/2/4 290/2/4 293/2/4
f 291/2/4 292/2/4 296/2/4
f 296/2/4 292/2/4 297/2/4
f 293/2/4 294/2/4 298/2/4
f 298/2/4 294/2/4 299/2/4
f 295/2/4 296/2/4 301/2/4
f 299/2/4 300/2/4 302/2/4
f 295/2/4 301/2/4 303/2/4
f 301/2/4 302/2/4 303/2/4
f 302/2/4 300/2/4 304/2/4
f 303/2/4 302/2/4 304/2/4
f 305/2/4 306/2/4 307/2/4
f 307/2/4 306/2/4 308/2/4
f 305/2/4 307/2/4 309/2/4
f 309/2/4 307/2/4 310/2/4
f 308/2/4 306/2/4 313/2/4
f 313/2/4 306/2/4 314/2/4
f 310/2/4 311/2/4 315/2/4
f 315/2/4 311/2/4 316/2/4
f 312/2/4 313/2/4 317/2/4
f 317/2/4 313/2/4 318/2/4
f 316/2/4 317/2/4 319/2/4
f 319/2/4 317/2/4 320/2/4
f 326/2/5 322/2/5 321/2/5
f 327/2/5 322/2/5 326/2/5
f 328/2/5 324/2/5 323/2/5
f 329/2/5 324/2/5 328/2/5
f 331/1/5 327/1/5 326/1/5
f 331/1/5 330/1/5 329/1/5
f 331/1/5 329/1/5 328/1/5
f 331/1/5 328/1/5 327/1/5
f 331/1/5 326/1/5 325/1/5
f 332/1/5 330/1/5 331/1/5
f 333/1/5 330/1/5 332/1/5
f 334/1/5 330/1/5 333/1/5
f 335/1/5 330/1/5 334/1/5
f 336/1/5 330/1/5 335/1/5
f 337/2/5 333/2/5 332/2/5
f 338/2/5 333/2/5 337/2/5
f 339/2/5 335/2/5 334/2/5
f 340/2/5 335/2/5 339/2/5
f 345/2/5 342/2/5 341/2/5
f 346/2/5 342/2/5 345/2/5
f 347/2/5 344/2/5 343/2/5
f 348/2/5 344/2/5 347/2/5
f 353/2/5 350/2/5 349/2/5
f 354/2/5 350/2/5 353/2/5
f 355/2/5 352/2/5 351/2/5
f 356/2/5 352/2/5 355/2/5
f 361/2/5 358/2/5 357/2/5
f 362/2/5 358/2/5 361/2/5
f 363/2/5 360/2/5 359/2/5
f 364/2/5 360/2/5 363/2/5
f 369/2/5 366/2/5 365/2/5
f 370/2/5 366/2/5 369/2/5
f 371/2/5 368/2/5 367/2/5
f 372/2/5 368/2/5 371/2/5
f 377/2/5 374/2/5 373/2/5
f 378/2/5 374/2/5 377/2/5
f 379/2/5 376/2/5 375/2/5
f 380/2/5 376/2/5 379/2/5
f 381/1/5 378/1/5 377/1/5
f 382/1/5 378/1/5 381/1/5
f 383/1/5 380/1/5 379/1/5
f 384/1/5 380/1/5 383/1/5
f 385/2/5 382/2/5 381/2/5
f 386/2/5 382/2/5 385/2/5
f 387/2/5 384/2/5 383/2/5
f 388/2/5 384/2/5 387/2/5
f 395/2/5 390/2/5 389/2/5
f 396/2/5 390/2/5 395/2/5
f 397/2/5 392/2/5 391/2/5
f 398/2/5 392/2/5 397/2/5
f 401/1/5 394/1/5 393/1/5
f 402/1/5 394/1/5 401/1/5
f 403/1/5 396/1/5 395/1/5
f 404/1/5 396/1/5 403/1/5
f 405/1/5 398/1/5 397/1/5
f 406/1/5 398/1/5 405/1/5
f 407/1/5 400/1/5 399/1/5
f 408/1/5 400/1/5 407/1/5
f 409/2/5 404/2/5 403/2/5
f 410/2/5 404/2/5 409/2/5
f 411/2/5 406/2/5 405/2/5
f 412/2/5 406/2/5 411/2/5
f 413/2/6 414/2/6 419/2/6
f 419/2/6 414/2/6 420/2/6
f 415/2/6 416/2/6 421/2/6
f 421/2/6 416/2/6 422/2/6
f 417/1/6 418/1/6 425/1/6
f 425/1/6 418/1/6 426/1/6
f 419/1/6 420/1/6 427/1/6
f 427/1/6 420/1/6 428/1/6
f 421/1/6 422/1/6 429/1/6
f 429/1/6 422/1/6 430/1/6
f 423/1/6 424/1/6 431/1/6
f 431/1/6 424/1/6 432/1/6
f 427/2/6 428/2/6 433/2/6
f 433/2/6 428/2/6 434/2/6
f 429/2/6 430/2/6 435/2/6
f 435/2/6 430/2/6 436/2/6
f 437/2/6 438/2/6 441/2/6
f 441/2/6 438/2/6 442/2/6
f 439/2/6 440/2/6 443/2/6
f 443/2/6 440/2/6 444/2/6
f 441/1/6 442/1/6 445/1/6
f 445/1/6 442/1/6 446/1/6
f 443/1/6 444/1/6 447/1/6
f 447/1/6 444/1/6 448/1/6
f 445/2/6 446/2/6 449/2/6
f 449/2/6 446/2/6 450/2/6
f 447/2/6 448/2/6 451/2/6
f 451/2/6 448/2/6 452/2/6
f 453/2/6 454/2/6 457/2/6
f 457/2/6 454/2/6 458/2/6
f 455/2/6 456/2/6 459/2/6
f 459/2/6 456/2/6 460/2/6
f 461/2/6 462/2/6 465/2/6
f 465/2/6 462/2/6 466/2/6
f 463/2/6 464/2/6 467/2/6
f 467/2/6 464/2/6 468/2/6
f 469/2/6 470/2/6 473/2/6
f 473/2/6 470/2/6 474/2/6
f 471/2/6 472/2/6 475/2/6
f 475/2/6 472/2/6 476/2/6
f 477/2/6 478/2/6 481/2/6
f 481/2/6 478/2/6 482/2/6
f 479/2/6 480/2/6 483/2/6
f 483/2/6 480/2/6 484/2/6
f 485/2/6 486/2/6 490/2/6
f 490/2/6 486/2/6 491/2/6
f 487/2/6 488/2/6 492/2/6
f 492/2/6 488/2/6 493/2/6
f 490/1/6 491/1/6 495/1/6
f 493/1/6 494/1/6 495/1/6
f 492/1/6 493/1/6 495/1/6
f 491/1/6 492/1/6 495/1/6
f 489/1/6 490/1/6 495/1/6
f 495/1/6 494/1/6 496/1/6
f 496/1/6 494/1/6 497/1/6
f 497/1/6 494/1/6 498/1/6
f 498/1/6 494/1/6 499/1/6
f 499/1/6 494/1/6 500/1/6
f 496/2/6 497/2/6 501/2/6
f 501/2/6 497/2/6 502/2/6
f 498/2/6 499/2/6 503/2/6
f 503/2/6 499/2/6 504/2/6
