# MagicaVoxel @ Ephtracy

# group
o 

# material
mtllib Final_Box_Under.mtl
usemtl palette

# normals
vn -1 0 0
vn 1 0 0
vn 0 0 1
vn 0 0 -1
vn 0 -1 0
vn 0 1 0

# texcoords
vt 0.0214844 0.5
vt 0.205078 0.5
vt 0.537109 0.5
vt 0.955078 0.5

# verts
v -0.9 0 0.6
v -0.9 0 -0.7
v -0.9 0.1 0.4
v -0.9 0.1 -0.5
v -0.9 0.8 0.6
v -0.9 0.8 0.4
v -0.9 0.8 -0.5
v -0.9 0.8 -0.7
v -0.8 0.1 0.4
v -0.8 0.1 -0.5
v -0.8 0.8 0.4
v -0.8 0.8 -0.5
v -0.7 0.8 0.4
v -0.7 0.8 -0.5
v -0.7 0.9 0.4
v -0.7 0.9 -0.5
v -0.6 0.9 0.3
v -0.6 0.9 -0.4
v -0.6 1 0.3
v -0.6 1 -0.4
v -0.5 1 0.2
v -0.5 1 -0.3
v -0.5 1.1 0.2
v -0.5 1.1 -0.3
v -0.4 1.1 0.0999999
v -0.4 1.1 -0.2
v -0.4 1.2 0.0999999
v -0.4 1.2 -0.2
v -0.3 1.2 -5.96046e-08
v -0.3 1.2 -0.1
v -0.3 1.3 -5.96046e-08
v -0.3 1.3 -0.1
v -0.2 0.1 -0.6
v -0.2 0.1 -0.7
v -0.2 0.8 -0.6
v -0.2 0.8 -0.7
v -0.1 0.1 0.6
v -0.1 0.1 0.5
v -0.1 0.6 0.6
v -0.1 0.6 0.5
v 0.8 0.1 0.6
v 0.8 0.1 0.5
v 0.8 0.1 -0.6
v 0.8 0.1 -0.7
v 0.8 0.3 0.4
v 0.8 0.3 -0.5
v 0.8 0.6 0.6
v 0.8 0.6 0.5
v 0.8 0.7 0.4
v 0.8 0.7 -0.5
v 0.8 0.8 -0.6
v 0.8 0.8 -0.7
v -0.7 0.1 0.6
v -0.7 0.1 0.5
v -0.7 0.1 -0.6
v -0.7 0.1 -0.7
v -0.7 0.3 0.4
v -0.7 0.3 -0.5
v -0.7 0.6 0.6
v -0.7 0.6 0.5
v -0.7 0.7 0.4
v -0.7 0.7 -0.5
v -0.7 0.8 -0.6
v -0.7 0.8 -0.7
v 0.2 0.1 0.6
v 0.2 0.1 0.5
v 0.2 0.1 -0.6
v 0.2 0.1 -0.7
v 0.2 0.6 0.6
v 0.2 0.6 0.5
v 0.2 0.8 -0.6
v 0.2 0.8 -0.7
v 0.4 1.2 -5.96046e-08
v 0.4 1.2 -0.1
v 0.4 1.3 -5.96046e-08
v 0.4 1.3 -0.1
v 0.5 1.1 0.0999999
v 0.5 1.1 -0.2
v 0.5 1.2 0.0999999
v 0.5 1.2 -0.2
v 0.6 1 0.2
v 0.6 1 -0.3
v 0.6 1.1 0.2
v 0.6 1.1 -0.3
v 0.7 0.9 0.3
v 0.7 0.9 -0.4
v 0.7 1 0.3
v 0.7 1 -0.4
v 0.8 0.8 0.4
v 0.8 0.8 -0.5
v 0.8 0.9 0.4
v 0.8 0.9 -0.5
v 0.9 0.1 0.4
v 0.9 0.1 -0.5
v 0.9 0.8 0.4
v 0.9 0.8 -0.5
v 1 0 0.6
v 1 0 -0.7
v 1 0.1 0.4
v 1 0.1 -0.5
v 1 0.8 0.6
v 1 0.8 0.4
v 1 0.8 -0.5
v 1 0.8 -0.7
v -0.9 0 0.6
v -0.9 0.8 0.6
v -0.7 0.1 0.6
v -0.7 0.6 0.6
v -0.1 0.1 0.6
v -0.1 0.6 0.6
v -0.1 0.8 0.6
v 0.2 0.1 0.6
v 0.2 0.6 0.6
v 0.2 0.8 0.6
v 0.8 0.1 0.6
v 0.8 0.6 0.6
v 1 0 0.6
v 1 0.8 0.6
v -0.7 0.1 0.5
v -0.7 0.6 0.5
v -0.1 0.1 0.5
v -0.1 0.6 0.5
v 0.2 0.1 0.5
v 0.2 0.6 0.5
v 0.8 0.1 0.5
v 0.8 0.6 0.5
v -0.7 0.8 0.4
v -0.7 0.9 0.4
v 0.8 0.8 0.4
v 0.8 0.9 0.4
v -0.6 0.9 0.3
v -0.6 1 0.3
v 0.7 0.9 0.3
v 0.7 1 0.3
v -0.5 1 0.2
v -0.5 1.1 0.2
v 0.6 1 0.2
v 0.6 1.1 0.2
v -0.4 1.1 0.0999999
v -0.4 1.2 0.0999999
v 0.5 1.1 0.0999999
v 0.5 1.2 0.0999999
v -0.3 1.2 -5.96046e-08
v -0.3 1.3 -5.96046e-08
v 0.4 1.2 -5.96046e-08
v 0.4 1.3 -5.96046e-08
v -0.9 0.1 -0.5
v -0.9 0.8 -0.5
v -0.8 0.1 -0.5
v -0.8 0.8 -0.5
v -0.7 0.3 -0.5
v -0.7 0.7 -0.5
v 0.8 0.3 -0.5
v 0.8 0.7 -0.5
v 0.9 0.1 -0.5
v 0.9 0.8 -0.5
v 1 0.1 -0.5
v 1 0.8 -0.5
v -0.9 0.1 0.4
v -0.9 0.8 0.4
v -0.8 0.1 0.4
v -0.8 0.8 0.4
v -0.7 0.3 0.4
v -0.7 0.7 0.4
v 0.8 0.3 0.4
v 0.8 0.7 0.4
v 0.9 0.1 0.4
v 0.9 0.8 0.4
v 1 0.1 0.4
v 1 0.8 0.4
v -0.3 1.2 -0.1
v -0.3 1.3 -0.1
v 0.4 1.2 -0.1
v 0.4 1.3 -0.1
v -0.4 1.1 -0.2
v -0.4 1.2 -0.2
v 0.5 1.1 -0.2
v 0.5 1.2 -0.2
v -0.5 1 -0.3
v -0.5 1.1 -0.3
v 0.6 1 -0.3
v 0.6 1.1 -0.3
v -0.6 0.9 -0.4
v -0.6 1 -0.4
v 0.7 0.9 -0.4
v 0.7 1 -0.4
v -0.7 0.8 -0.5
v -0.7 0.9 -0.5
v 0.8 0.8 -0.5
v 0.8 0.9 -0.5
v -0.7 0.1 -0.6
v -0.7 0.8 -0.6
v -0.2 0.1 -0.6
v -0.2 0.8 -0.6
v 0.2 0.1 -0.6
v 0.2 0.8 -0.6
v 0.8 0.1 -0.6
v 0.8 0.8 -0.6
v -0.9 0 -0.7
v -0.9 0.8 -0.7
v -0.7 0.1 -0.7
v -0.7 0.8 -0.7
v -0.2 0.1 -0.7
v -0.2 0.8 -0.7
v 0.2 0.1 -0.7
v 0.2 0.8 -0.7
v 0.8 0.1 -0.7
v 0.8 0.8 -0.7
v 1 0 -0.7
v 1 0.8 -0.7
v -0.9 0 0.6
v 1 0 0.6
v -0.8 0 0.5
v 0.9 0 0.5
v -0.8 0 -0.6
v 0.9 0 -0.6
v -0.9 0 -0.7
v 1 0 -0.7
v -0.7 0.6 0.6
v -0.1 0.6 0.6
v 0.2 0.6 0.6
v 0.8 0.6 0.6
v -0.7 0.6 0.5
v -0.1 0.6 0.5
v 0.2 0.6 0.5
v 0.8 0.6 0.5
v -0.7 0.7 0.4
v 0.8 0.7 0.4
v -0.7 0.7 -0.5
v 0.8 0.7 -0.5
v -0.7 0.1 0.6
v -0.1 0.1 0.6
v 0.2 0.1 0.6
v 0.8 0.1 0.6
v -0.7 0.1 0.5
v -0.1 0.1 0.5
v 0.2 0.1 0.5
v 0.8 0.1 0.5
v -0.9 0.1 0.4
v -0.8 0.1 0.4
v 0.9 0.1 0.4
v 1 0.1 0.4
v -0.9 0.1 -0.5
v -0.8 0.1 -0.5
v 0.9 0.1 -0.5
v 1 0.1 -0.5
v -0.7 0.1 -0.6
v -0.2 0.1 -0.6
v 0.2 0.1 -0.6
v 0.8 0.1 -0.6
v -0.7 0.1 -0.7
v -0.2 0.1 -0.7
v 0.2 0.1 -0.7
v 0.8 0.1 -0.7
v -0.7 0.3 0.4
v 0.8 0.3 0.4
v -0.7 0.3 -0.5
v 0.8 0.3 -0.5
v -0.9 0.8 0.6
v -0.1 0.8 0.6
v 0.2 0.8 0.6
v 1 0.8 0.6
v -0.8 0.8 0.5
v -0.1 0.8 0.5
v 0.2 0.8 0.5
v 0.9 0.8 0.5
v -0.9 0.8 0.4
v -0.8 0.8 0.4
v -0.7 0.8 0.4
v 0.8 0.8 0.4
v 0.9 0.8 0.4
v 1 0.8 0.4
v -0.9 0.8 -0.5
v -0.8 0.8 -0.5
v -0.7 0.8 -0.5
v 0.8 0.8 -0.5
v 0.9 0.8 -0.5
v 1 0.8 -0.5
v -0.8 0.8 -0.6
v -0.7 0.8 -0.6
v -0.2 0.8 -0.6
v 0.2 0.8 -0.6
v 0.8 0.8 -0.6
v 0.9 0.8 -0.6
v -0.9 0.8 -0.7
v -0.7 0.8 -0.7
v -0.2 0.8 -0.7
v 0.2 0.8 -0.7
v 0.8 0.8 -0.7
v 1 0.8 -0.7
v -0.7 0.9 0.4
v 0.8 0.9 0.4
v -0.6 0.9 0.3
v 0.7 0.9 0.3
v -0.6 0.9 -0.4
v 0.7 0.9 -0.4
v -0.7 0.9 -0.5
v 0.8 0.9 -0.5
v -0.6 1 0.3
v 0.7 1 0.3
v -0.5 1 0.2
v 0.6 1 0.2
v -0.5 1 -0.3
v 0.6 1 -0.3
v -0.6 1 -0.4
v 0.7 1 -0.4
v -0.5 1.1 0.2
v 0.6 1.1 0.2
v -0.4 1.1 0.0999999
v 0.5 1.1 0.0999999
v -0.4 1.1 -0.2
v 0.5 1.1 -0.2
v -0.5 1.1 -0.3
v 0.6 1.1 -0.3
v -0.4 1.2 0.0999999
v 0.5 1.2 0.0999999
v -0.3 1.2 -5.96046e-08
v 0.4 1.2 -5.96046e-08
v -0.3 1.2 -0.1
v 0.4 1.2 -0.1
v -0.4 1.2 -0.2
v 0.5 1.2 -0.2
v -0.3 1.3 -5.96046e-08
v 0.4 1.3 -5.96046e-08
v -0.3 1.3 -0.1
v 0.4 1.3 -0.1

# faces
f 3/2/1 2/2/1 1/2/1
f 4/2/1 2/2/1 3/2/1
f 5/2/1 3/2/1 1/2/1
f 6/2/1 3/2/1 5/2/1
f 7/2/1 2/2/1 4/2/1
f 8/2/1 2/2/1 7/2/1
f 11/3/1 10/3/1 9/3/1
f 12/3/1 10/3/1 11/3/1
f 15/1/1 14/1/1 13/1/1
f 16/1/1 14/1/1 15/1/1
f 19/1/1 18/1/1 17/1/1
f 20/1/1 18/1/1 19/1/1
f 23/1/1 22/1/1 21/1/1
f 24/1/1 22/1/1 23/1/1
f 27/1/1 26/1/1 25/1/1
f 28/1/1 26/1/1 27/1/1
f 31/1/1 30/1/1 29/1/1
f 32/1/1 30/1/1 31/1/1
f 35/2/1 34/2/1 33/2/1
f 36/2/1 34/2/1 35/2/1
f 39/2/1 38/2/1 37/2/1
f 40/2/1 38/2/1 39/2/1
f 47/2/1 42/2/1 41/2/1
f 48/2/1 42/2/1 47/2/1
f 49/3/1 46/3/1 45/3/1
f 50/3/1 46/3/1 49/3/1
f 51/2/1 44/2/1 43/2/1
f 52/2/1 44/2/1 51/2/1
f 53/2/2 54/2/2 59/2/2
f 59/2/2 54/2/2 60/2/2
f 57/3/2 58/3/2 61/3/2
f 61/3/2 58/3/2 62/3/2
f 55/2/2 56/2/2 63/2/2
f 63/2/2 56/2/2 64/2/2
f 65/2/2 66/2/2 69/2/2
f 69/2/2 66/2/2 70/2/2
f 67/2/2 68/2/2 71/2/2
f 71/2/2 68/2/2 72/2/2
f 73/1/2 74/1/2 75/1/2
f 75/1/2 74/1/2 76/1/2
f 77/1/2 78/1/2 79/1/2
f 79/1/2 78/1/2 80/1/2
f 81/1/2 82/1/2 83/1/2
f 83/1/2 82/1/2 84/1/2
f 85/1/2 86/1/2 87/1/2
f 87/1/2 86/1/2 88/1/2
f 89/1/2 90/1/2 91/1/2
f 91/1/2 90/1/2 92/1/2
f 93/3/2 94/3/2 95/3/2
f 95/3/2 94/3/2 96/3/2
f 97/2/2 98/2/2 99/2/2
f 99/2/2 98/2/2 100/2/2
f 97/2/2 99/2/2 101/2/2
f 101/2/2 99/2/2 102/2/2
f 100/2/2 98/2/2 103/2/2
f 103/2/2 98/2/2 104/2/2
f 107/2/3 106/2/3 105/2/3
f 108/2/3 106/2/3 107/2/3
f 109/2/3 107/2/3 105/2/3
f 110/2/3 106/2/3 108/2/3
f 111/2/3 106/2/3 110/2/3
f 112/2/3 109/2/3 105/2/3
f 112/2/3 110/2/3 109/2/3
f 113/4/3 111/4/3 110/4/3
f 113/2/3 110/2/3 112/2/3
f 114/4/3 111/4/3 113/4/3
f 115/2/3 112/2/3 105/2/3
f 116/2/3 114/2/3 113/2/3
f 117/2/3 115/2/3 105/2/3
f 117/2/3 116/2/3 115/2/3
f 118/2/3 114/2/3 116/2/3
f 118/2/3 116/2/3 117/2/3
f 121/3/3 120/3/3 119/3/3
f 122/3/3 120/3/3 121/3/3
f 125/3/3 124/3/3 123/3/3
f 126/3/3 124/3/3 125/3/3
f 129/1/3 128/1/3 127/1/3
f 130/1/3 128/1/3 129/1/3
f 133/1/3 132/1/3 131/1/3
f 134/1/3 132/1/3 133/1/3
f 137/1/3 136/1/3 135/1/3
f 138/1/3 136/1/3 137/1/3
f 141/1/3 140/1/3 139/1/3
f 142/1/3 140/1/3 141/1/3
f 145/1/3 144/1/3 143/1/3
f 146/1/3 144/1/3 145/1/3
f 149/2/3 148/2/3 147/2/3
f 150/2/3 148/2/3 149/2/3
f 153/3/3 152/3/3 151/3/3
f 154/3/3 152/3/3 153/3/3
f 157/2/3 156/2/3 155/2/3
f 158/2/3 156/2/3 157/2/3
f 159/2/4 160/2/4 161/2/4
f 161/2/4 160/2/4 162/2/4
f 163/3/4 164/3/4 165/3/4
f 165/3/4 164/3/4 166/3/4
f 167/2/4 168/2/4 169/2/4
f 169/2/4 168/2/4 170/2/4
f 171/1/4 172/1/4 173/1/4
f 173/1/4 172/1/4 174/1/4
f 175/1/4 176/1/4 177/1/4
f 177/1/4 176/1/4 178/1/4
f 179/1/4 180/1/4 181/1/4
f 181/1/4 180/1/4 182/1/4
f 183/1/4 184/1/4 185/1/4
f 185/1/4 184/1/4 186/1/4
f 187/1/4 188/1/4 189/1/4
f 189/1/4 188/1/4 190/1/4
f 191/3/4 192/3/4 193/3/4
f 193/3/4 192/3/4 194/3/4
f 195/3/4 196/3/4 197/3/4
f 197/3/4 196/3/4 198/3/4
f 199/2/4 200/2/4 201/2/4
f 201/2/4 200/2/4 202/2/4
f 199/2/4 201/2/4 203/2/4
f 199/2/4 203/2/4 205/2/4
f 203/2/4 204/2/4 205/2/4
f 205/2/4 204/2/4 206/2/4
f 199/2/4 205/2/4 207/2/4
f 199/2/4 207/2/4 209/2/4
f 207/2/4 208/2/4 209/2/4
f 209/2/4 208/2/4 210/2/4
f 213/2/5 212/2/5 211/2/5
f 214/2/5 212/2/5 213/2/5
f 215/2/5 213/2/5 211/2/5
f 215/3/5 214/3/5 213/3/5
f 216/2/5 212/2/5 214/2/5
f 216/3/5 214/3/5 215/3/5
f 217/2/5 215/2/5 211/2/5
f 217/2/5 216/2/5 215/2/5
f 218/2/5 212/2/5 216/2/5
f 218/2/5 216/2/5 217/2/5
f 223/2/5 220/2/5 219/2/5
f 224/2/5 220/2/5 223/2/5
f 225/2/5 222/2/5 221/2/5
f 226/2/5 222/2/5 225/2/5
f 229/1/5 228/1/5 227/1/5
f 230/1/5 228/1/5 229/1/5
f 231/2/6 232/2/6 235/2/6
f 235/2/6 232/2/6 236/2/6
f 233/2/6 234/2/6 237/2/6
f 237/2/6 234/2/6 238/2/6
f 239/2/6 240/2/6 243/2/6
f 243/2/6 240/2/6 244/2/6
f 241/2/6 242/2/6 245/2/6
f 245/2/6 242/2/6 246/2/6
f 247/2/6 248/2/6 251/2/6
f 251/2/6 248/2/6 252/2/6
f 249/2/6 250/2/6 253/2/6
f 253/2/6 250/2/6 254/2/6
f 255/3/6 256/3/6 257/3/6
f 257/3/6 256/3/6 258/3/6
f 259/2/6 260/2/6 263/2/6
f 260/4/6 261/4/6 264/4/6
f 263/2/6 260/2/6 264/2/6
f 261/2/6 262/2/6 265/2/6
f 264/4/6 261/4/6 265/4/6
f 265/2/6 262/2/6 266/2/6
f 259/2/6 263/2/6 267/2/6
f 263/3/6 264/3/6 268/3/6
f 267/2/6 263/2/6 268/2/6
f 264/3/6 265/3/6 268/3/6
f 265/3/6 266/3/6 268/3/6
f 268/3/6 266/3/6 269/3/6
f 269/3/6 266/3/6 270/3/6
f 266/2/6 262/2/6 271/2/6
f 270/3/6 266/3/6 271/3/6
f 271/2/6 262/2/6 272/2/6
f 268/3/6 269/3/6 274/3/6
f 274/3/6 269/3/6 275/3/6
f 270/3/6 271/3/6 276/3/6
f 276/3/6 271/3/6 277/3/6
f 274/3/6 275/3/6 279/3/6
f 273/2/6 274/2/6 279/2/6
f 276/3/6 277/3/6 279/3/6
f 275/3/6 276/3/6 279/3/6
f 279/3/6 277/3/6 280/3/6
f 280/3/6 277/3/6 281/3/6
f 281/3/6 277/3/6 282/3/6
f 282/3/6 277/3/6 283/3/6
f 277/2/6 278/2/6 284/2/6
f 283/3/6 277/3/6 284/3/6
f 273/2/6 279/2/6 285/2/6
f 279/2/6 280/2/6 285/2/6
f 285/2/6 280/2/6 286/2/6
f 281/2/6 282/2/6 287/2/6
f 287/2/6 282/2/6 288/2/6
f 283/2/6 284/2/6 289/2/6
f 284/2/6 278/2/6 290/2/6
f 289/2/6 284/2/6 290/2/6
f 291/1/6 292/1/6 293/1/6
f 293/1/6 292/1/6 294/1/6
f 291/1/6 293/1/6 295/1/6
f 294/1/6 292/1/6 296/1/6
f 291/1/6 295/1/6 297/1/6
f 295/1/6 296/1/6 297/1/6
f 296/1/6 292/1/6 298/1/6
f 297/1/6 296/1/6 298/1/6
f 299/1/6 300/1/6 301/1/6
f 301/1/6 300/1/6 302/1/6
f 299/1/6 301/1/6 303/1/6
f 302/1/6 300/1/6 304/1/6
f 299/1/6 303/1/6 305/1/6
f 303/1/6 304/1/6 305/1/6
f 304/1/6 300/1/6 306/1/6
f 305/1/6 304/1/6 306/1/6
f 307/1/6 308/1/6 309/1/6
f 309/1/6 308/1/6 310/1/6
f 307/1/6 309/1/6 311/1/6
f 310/1/6 308/1/6 312/1/6
f 307/1/6 311/1/6 313/1/6
f 311/1/6 312/1/6 313/1/6
f 312/1/6 308/1/6 314/1/6
f 313/1/6 312/1/6 314/1/6
f 315/1/6 316/1/6 317/1/6
f 317/1/6 316/1/6 318/1/6
f 315/1/6 317/1/6 319/1/6
f 318/1/6 316/1/6 320/1/6
f 315/1/6 319/1/6 321/1/6
f 319/1/6 320/1/6 321/1/6
f 320/1/6 316/1/6 322/1/6
f 321/1/6 320/1/6 322/1/6
f 323/1/6 324/1/6 325/1/6
f 325/1/6 324/1/6 326/1/6
